<?xml version="1.0" encoding="UTF-8" standalone="no"?>
<!-- Created with Inkscape (http://www.inkscape.org/) -->

<svg
   xmlns:dc="http://purl.org/dc/elements/1.1/"
   xmlns:cc="http://creativecommons.org/ns#"
   xmlns:rdf="http://www.w3.org/1999/02/22-rdf-syntax-ns#"
   xmlns:svg="http://www.w3.org/2000/svg"
   xmlns="http://www.w3.org/2000/svg"
   xmlns:sodipodi="http://sodipodi.sourceforge.net/DTD/sodipodi-0.dtd"
   xmlns:inkscape="http://www.inkscape.org/namespaces/inkscape"
   width="51.599998mm"
   height="90.25mm"
   viewBox="0 0 51.599998 90.25"
   id="svg3634"
   version="1.1"
   inkscape:version="0.91 r13725"
   sodipodi:docname="ChargingScreen.svg"
   inkscape:export-filename="C:\Users\satyajit\OneDrive\GreenDot Inc\charging_automobile_battery\business docs\ChargingApp\ChargingScreen.png"
   inkscape:export-xdpi="600"
   inkscape:export-ydpi="600">
  <defs
     id="defs3636">
    <inkscape:perspective
       sodipodi:type="inkscape:persp3d"
       inkscape:vp_x="1.3547216 : 170.69492 : 1"
       inkscape:vp_y="0 : 999.99997 : 0"
       inkscape:vp_z="197.35593 : 171.14649 : 1"
       inkscape:persp3d-origin="105 : 124.33333 : 1"
       id="perspective4804" />
    <clipPath
       id="clipPath3350"
       clipPathUnits="userSpaceOnUse">
      <path
         inkscape:connector-curvature="0"
         id="path3352"
         d="m 0,1008 1008,0 L 1008,0 0,0 0,1008 Z" />
    </clipPath>
  </defs>
  <sodipodi:namedview
     id="base"
     pagecolor="#ffffff"
     bordercolor="#666666"
     borderopacity="1.0"
     inkscape:pageopacity="0.0"
     inkscape:pageshadow="2"
     inkscape:zoom="2.8776869"
     inkscape:cx="108.26935"
     inkscape:cy="116.34799"
     inkscape:document-units="mm"
     inkscape:current-layer="layer1"
     showgrid="false"
     inkscape:window-width="1920"
     inkscape:window-height="1019"
     inkscape:window-x="-9"
     inkscape:window-y="-9"
     inkscape:window-maximized="1" />
  <metadata
     id="metadata3639">
    <rdf:RDF>
      <cc:Work
         rdf:about="">
        <dc:format>image/svg+xml</dc:format>
        <dc:type
           rdf:resource="http://purl.org/dc/dcmitype/StillImage" />
        <dc:title />
      </cc:Work>
    </rdf:RDF>
  </metadata>
  <g
     inkscape:label="Layer 1"
     inkscape:groupmode="layer"
     id="layer1"
     transform="translate(0,-206.75)">
    <g
       id="g4785"
       transform="matrix(0.28222222,0,0,0.2822222,54.23514,2.2376271)">
      <g
         id="g3344"
         inkscape:label="logoblock"
         transform="matrix(0.16807834,0,0,-0.16807834,-186.67835,951.81562)">
        <g
           id="g3346">
          <g
             id="g3348"
             clip-path="url(#clipPath3350)">
            <g
               id="g3354"
               transform="translate(156.9404,204.4736)">
              <path
                 d="m 0,0 c 0,-16.502 -4.835,-29.835 -14.5,-40.001 -9.668,-10.164 -22.488,-15.243 -38.459,-15.243 -14.595,0 -26.783,4.53 -36.563,13.601 -11.081,10.283 -16.622,23.693 -16.622,40.242 0,16.261 5.617,29.63 16.85,40.1 9.858,9.161 22.352,13.738 37.481,13.738 18.264,0 33.241,-8.177 44.937,-24.536 l -12.842,-7.85 c -8.634,11.306 -19.714,16.966 -33.241,16.966 -10.545,0 -19.371,-3.183 -26.477,-9.534 -8.252,-7.386 -12.38,-17.016 -12.38,-28.884 0,-11.41 3.554,-20.662 10.661,-27.764 7.105,-7.106 16.505,-10.653 28.196,-10.653 18.344,0 30.261,8.737 35.763,26.217 l -38.628,0 0,15.141 L 0,1.54 0,0 Z"
                 style="fill:#71c82d;fill-opacity:1;fill-rule:nonzero;stroke:none"
                 id="path3356"
                 inkscape:connector-curvature="0" />
            </g>
            <g
               id="g3358"
               transform="translate(240.8428,206.0137)">
              <path
                 d="m 0,0 c 10.621,0 15.934,5.236 15.934,15.701 0,11.222 -5.732,16.827 -17.196,16.827 l -48.37,0 L -49.632,0 0,0 Z m 30.722,-53.836 -16.002,0 -22.459,38.695 -41.893,0 0,-38.695 -13.755,0 0,101.512 65.453,0 c 8.709,0 15.547,-2.876 20.516,-8.626 4.967,-5.75 7.449,-13.529 7.449,-23.342 0,-8.601 -2.026,-15.52 -6.073,-20.756 -3.746,-4.856 -8.903,-7.946 -15.475,-9.251 l 22.239,-39.537 z"
                 style="fill:#71c82d;fill-opacity:1;fill-rule:nonzero;stroke:none"
                 id="path3360"
                 inkscape:connector-curvature="0" />
            </g>
            <g
               id="g3362"
               transform="translate(377.0176,152.1777)">
              <path
                 d="m 0,0 -86.887,0 0,101.512 83.679,0 0,-15.148 -69.924,0 0,-26.079 48.602,0 0,-15.14 -48.602,0 0,-30.006 L 0,15.139 0,0 Z"
                 style="fill:#71c82d;fill-opacity:1;fill-rule:nonzero;stroke:none"
                 id="path3364"
                 inkscape:connector-curvature="0" />
            </g>
            <g
               id="g3366"
               transform="translate(481.7803,152.1777)">
              <path
                 d="m 0,0 -86.884,0 0,101.512 83.675,0 0,-15.148 -69.92,0 0,-26.079 48.598,0 0,-15.14 -48.598,0 0,-30.006 L 0,15.139 0,0 Z"
                 style="fill:#71c82d;fill-opacity:1;fill-rule:nonzero;stroke:none"
                 id="path3368"
                 inkscape:connector-curvature="0" />
            </g>
            <g
               id="g3370"
               transform="translate(593.8877,152.1777)">
              <path
                 d="m 0,0 -17.119,0 -63.351,83.243 0,-83.243 -13.756,0 0,101.512 17.081,0 63.383,-83.29 0,83.29 13.762,0 L 0,0 Z"
                 style="fill:#71c82d;fill-opacity:1;fill-rule:nonzero;stroke:none"
                 id="path3372"
                 inkscape:connector-curvature="0" />
            </g>
            <g
               id="g3374"
               transform="translate(706.5576,167.3164)">
              <path
                 d="m 0,0 c 8.253,0 15.034,3.259 20.347,9.779 5.31,6.526 7.965,14.9 7.965,25.13 0,10.889 -2.846,19.659 -8.543,26.322 -5.692,6.665 -13.158,9.995 -22.406,9.995 l -39.888,0 L -42.525,0 0,0 Z m -3.783,86.373 c 14.444,0 25.883,-4.699 34.335,-14.098 8.437,-9.388 12.661,-21.984 12.661,-37.783 0,-14.488 -4.47,-26.545 -13.408,-36.175 -8.332,-8.971 -18.648,-13.456 -30.951,-13.456 l -55.136,0 0,101.512 52.499,0 z"
                 style="fill:#71c82d;fill-opacity:1;fill-rule:nonzero;stroke:none"
                 id="path3376"
                 inkscape:connector-curvature="0" />
            </g>
            <g
               id="g3378"
               transform="translate(857.4014,203.0723)">
              <path
                 d="m 0,0 c 0,11.868 -4.124,21.498 -12.382,28.885 -7.108,6.35 -15.932,9.533 -26.474,9.533 -11.542,0 -20.938,-3.625 -28.198,-10.869 C -74.315,20.306 -77.947,11.124 -77.947,0 c 0,-11.501 3.557,-20.779 10.664,-27.833 7.105,-7.058 16.582,-10.584 28.427,-10.584 11.764,0 21.182,3.548 28.254,10.653 C -3.533,-20.662 0,-11.409 0,0 m 14.328,0 c 0,-16.638 -5.582,-30.104 -16.738,-40.379 -9.779,-8.978 -21.927,-13.464 -36.446,-13.464 -14.676,0 -26.897,4.53 -36.678,13.602 -11.167,10.282 -16.74,23.692 -16.74,40.241 0,16.262 5.657,29.63 16.969,40.101 9.929,9.161 22.083,13.737 36.449,13.737 14.437,0 26.55,-4.576 36.336,-13.737 C 8.712,29.63 14.328,16.262 14.328,0"
                 style="fill:#71c82d;fill-opacity:1;fill-rule:nonzero;stroke:none"
                 id="path3380"
                 inkscape:connector-curvature="0" />
            </g>
            <g
               id="g3382"
               transform="translate(973.7422,238.542)">
              <path
                 d="m 0,0 -39.663,0 0,-86.364 -13.754,0 0,86.364 -39.664,0 0,15.147 L 0,15.147 0,0 Z"
                 style="fill:#71c82d;fill-opacity:1;fill-rule:nonzero;stroke:none"
                 id="path3384"
                 inkscape:connector-curvature="0" />
            </g>
            <g
               id="g3386"
               transform="translate(303.6255,488.2002)">
              <path
                 d="M 0,0 C 0.249,-0.607 0.469,-0.967 0.469,-0.967 79.672,-52.824 182.615,-36.324 271.22,-11.879 324.454,3.33 374.056,15.237 423.724,16.02 c 0,0 1.935,5.178 4.211,12.691 1.992,6.145 3.927,14.339 3.927,14.339 C 381.595,48.389 325.659,32.7 281.649,17.674 201.694,-8.398 118.266,-48.382 33.093,-15.354 22.404,-11.077 10.816,-5.683 -0.415,1.05 -0.415,1.05 -0.25,0.607 0,0"
                 style="fill:#4f95d6;fill-opacity:1;fill-rule:nonzero;stroke:none"
                 id="path3388"
                 inkscape:connector-curvature="0" />
            </g>
            <g
               id="g3390"
               transform="translate(587.2227,800.1782)">
              <path
                 d="m 0,0 c -0.825,0.289 -1.55,0.503 -1.55,0.503 -17.77,-67.696 -3.839,-144.417 14.881,-212.279 20.534,-71.864 34.935,-135.331 24.298,-204.488 0,0 7.089,3.543 13.249,7.847 6.16,4.303 12.32,8.777 12.32,8.777 16.262,56.311 -2.54,125.385 -20.312,177.435 -23.282,71.385 -57.587,145.894 -41.179,221.587 0,0 -0.882,0.33 -1.707,0.618"
                 style="fill:#71c82d;fill-opacity:1;fill-rule:nonzero;stroke:none"
                 id="path3392"
                 inkscape:connector-curvature="0" />
            </g>
            <g
               id="g3394"
               transform="translate(286.0664,545.8638)">
              <path
                 d="m 0,0 0.087,-0.552 c 80.072,-57.864 186.851,-41.046 278.199,-15.85 61.887,17.684 117.142,30.781 175.518,27.282 0,0 0.627,7.228 1.137,12.463 0.513,5.236 0.342,12.634 0.342,12.634 C 401.105,47.328 337.563,29.832 288.715,13.149 208.762,-12.923 125.327,-52.898 40.157,-19.874 27.292,-14.729 13,-8.074 -0.119,0.667 L 0,0 Z"
                 style="fill:#4f95d6;fill-opacity:1;fill-rule:nonzero;stroke:none"
                 id="path3396"
                 inkscape:connector-curvature="0" />
            </g>
            <g
               id="g3398"
               transform="translate(540.9971,810.9365)">
              <path
                 d="m 0,0 c -0.659,0.097 -1.253,0.158 -1.253,0.158 -28.029,-72.825 -13.158,-159.276 7.655,-234.724 21.565,-75.48 36.308,-141.408 22.446,-214.712 0,0 6.402,1.414 9.947,2.678 3.543,1.267 8.945,2.955 8.945,2.955 29.254,59.41 8.285,139.867 -11.787,198.645 -25.652,78.668 -64.609,161.049 -34.421,244.79 0,0 -0.876,0.114 -1.532,0.21"
                 style="fill:#71c82d;fill-opacity:1;fill-rule:nonzero;stroke:none"
                 id="path3400"
                 inkscape:connector-curvature="0" />
            </g>
            <g
               id="g3402"
               transform="translate(283.1621,592.3462)">
              <path
                 d="m 0,0 c 78.974,-50.491 181.486,-34.167 269.447,-9.899 65.818,18.803 124.922,32.262 187.431,26.253 0,0 -0.654,5.636 -1.537,11.552 -0.881,5.916 -2.386,12.902 -2.446,12.917 C 397.378,55.062 330.67,36.995 279.875,19.652 199.92,-6.42 116.488,-46.403 31.318,-13.379 21.43,-9.421 10.539,-4.464 0.072,1.587"
                 style="fill:#4f95d6;fill-opacity:1;fill-rule:nonzero;stroke:none"
                 id="path3404"
                 inkscape:connector-curvature="0" />
            </g>
            <g
               id="g3406"
               transform="translate(492.6475,811.8867)">
              <path
                 d="m 0,0 c -0.406,-0.039 -1.142,-0.097 -1.142,-0.097 -34.5,-75.149 -19.12,-166.715 2.809,-246.208 21.229,-74.295 35.842,-139.335 23.074,-211.271 0,0 5.072,0.082 8.337,0.317 3.267,0.237 9.456,0.769 9.456,0.769 30.365,59.555 8.922,140.479 -11.319,199.758 -26.073,79.954 -66.053,163.388 -33.021,248.565 1.04,2.599 2.135,5.554 3.315,8.264 C 1.509,0.097 0.406,0.039 0,0"
                 style="fill:#71c82d;fill-opacity:1;fill-rule:nonzero;stroke:none"
                 id="path3408"
                 inkscape:connector-curvature="0" />
            </g>
            <g
               id="g3410"
               transform="translate(289.0483,636.0283)">
              <path
                 d="m 0,0 c 76.406,-38.781 170.98,-23.063 252.924,-0.46 65.232,18.636 123.715,32.178 185.605,26.566 0,0 -3.471,8.764 -5.405,13.373 -1.936,4.61 -6.088,12.918 -6.088,12.918 C 373.542,62.475 311.28,45.456 263.356,29.09 183.396,3.018 99.969,-36.962 14.795,-3.937 10.212,-2.103 5.415,-0.055 0.544,2.217"
                 style="fill:#4f95d6;fill-opacity:1;fill-rule:nonzero;stroke:none"
                 id="path3412"
                 inkscape:connector-curvature="0" />
            </g>
            <g
               id="g3414"
               transform="translate(438.7139,800.3936)">
              <path
                 d="m 0,0 c -34.952,-75.292 -19.477,-167.021 2.525,-246.779 19.586,-68.55 33.532,-129.401 25.547,-194.878 0,0 6.433,-1.144 9.565,-1.65 3.133,-0.504 11.148,-1.515 11.148,-1.515 22.001,58.042 2.16,132.346 -16.711,187.615 -26.073,79.951 -66.049,163.385 -33.024,248.562 1.25,3.126 2.6,6.351 4.053,9.631"
                 style="fill:#71c82d;fill-opacity:1;fill-rule:nonzero;stroke:none"
                 id="path3416"
                 inkscape:connector-curvature="0" />
            </g>
            <g
               id="g3418"
               transform="translate(304.6157,680.7627)">
              <path
                 d="m 0,0 c 80.93,-24.972 160.204,12.458 236.325,37.278 39.27,13.408 89.056,27.022 134.817,26.076 0,0 7.873,-8.345 11.181,-12.279 C 389.049,43.072 394.624,35.29 394.624,35.29 338.876,37.348 285.228,24.68 225.899,7.729 153.09,-12.355 69.968,-26.901 -1.179,-2.716"
                 style="fill:#4f95d6;fill-opacity:1;fill-rule:nonzero;stroke:none"
                 id="path3420"
                 inkscape:connector-curvature="0" />
            </g>
            <g
               id="g3422"
               transform="translate(378.7461,769.8638)">
              <path
                 d="m 0,0 c -0.857,-0.619 -1.657,-1.179 -1.657,-1.179 -23.425,-70.784 -8.931,-153.574 11.002,-225.831 16.832,-58.92 29.508,-112.011 27.669,-167.333 0,0 6.95,-3.168 11.424,-4.956 4.475,-1.79 13.188,-4.851 13.188,-4.851 C 72.929,-350 55.564,-286.258 38.897,-237.445 13.857,-160.657 -24.045,-80.063 2.243,1.6 2.243,1.6 0.857,0.618 0,0"
                 style="fill:#71c82d;fill-opacity:1;fill-rule:nonzero;stroke:none"
                 id="path3424"
                 inkscape:connector-curvature="0" />
            </g>
            <g
               id="g3426"
               transform="translate(70.5903,93.7813)">
              <path
                 d="m 0,0 6.563,-1.84 c -1.006,-3.231 -2.68,-5.632 -5.02,-7.201 -2.339,-1.568 -5.309,-2.354 -8.906,-2.354 -4.452,0 -8.111,1.344 -10.976,4.031 -2.866,2.686 -4.299,6.36 -4.299,11.02 0,4.929 1.441,8.757 4.322,11.486 2.88,2.728 6.67,4.091 11.364,4.091 4.101,0 7.432,-1.07 9.993,-3.213 1.524,-1.264 2.668,-3.083 3.43,-5.453 l -6.7,-1.416 c -0.396,1.537 -1.223,2.747 -2.481,3.637 -1.257,0.89 -2.786,1.334 -4.584,1.334 -2.485,0 -4.502,-0.79 -6.048,-2.364 -1.548,-1.575 -2.322,-4.128 -2.322,-7.656 0,-3.746 0.763,-6.412 2.287,-8 1.524,-1.59 3.506,-2.385 5.945,-2.385 1.799,0 3.346,0.504 4.642,1.514 1.296,1.01 2.226,2.601 2.79,4.769"
                 style="fill:#110f0d;fill-opacity:1;fill-rule:nonzero;stroke:none"
                 id="path3428"
                 inkscape:connector-curvature="0" />
            </g>
            <g
               id="g3430"
               transform="translate(89.7344,97.7207)">
              <path
                 d="m 0,0 c 0,-3.354 0.877,-5.896 2.63,-7.625 1.753,-1.733 3.979,-2.598 6.677,-2.598 2.698,0 4.912,0.859 6.644,2.577 1.729,1.717 2.595,4.292 2.595,7.727 0,3.395 -0.843,5.926 -2.527,7.596 -1.685,1.67 -3.922,2.506 -6.712,2.506 C 6.517,10.183 4.27,9.337 2.562,7.646 0.854,5.957 0,3.408 0,0 m -6.974,-0.202 c 0,3.016 0.51,5.55 1.532,7.596 0.762,1.509 1.803,2.862 3.122,4.06 1.318,1.198 2.762,2.088 4.333,2.667 2.089,0.782 4.496,1.173 7.226,1.173 4.939,0 8.891,-1.355 11.856,-4.062 2.965,-2.707 4.448,-6.472 4.448,-11.293 0,-4.781 -1.471,-8.522 -4.413,-11.221 -2.943,-2.701 -6.876,-4.052 -11.8,-4.052 -4.984,0 -8.949,1.344 -11.891,4.03 -2.942,2.687 -4.413,6.388 -4.413,11.102"
                 style="fill:#110f0d;fill-opacity:1;fill-rule:nonzero;stroke:none"
                 id="path3432"
                 inkscape:connector-curvature="0" />
            </g>
            <g
               id="g3434"
               transform="translate(121.7988,82.8906)">
              <path
                 d="m 0,0 0,29.619 6.586,0 13.721,-19.779 0,19.779 6.288,0 L 26.595,0 19.803,0 6.289,19.315 6.289,0 0,0 Z"
                 style="fill:#110f0d;fill-opacity:1;fill-rule:nonzero;stroke:none"
                 id="path3436"
                 inkscape:connector-curvature="0" />
            </g>
            <g
               id="g3438"
               transform="translate(163.4673,107.499)">
              <path
                 d="m 0,0 0,-19.617 5.054,0 c 1.89,0 3.254,0.094 4.092,0.283 1.098,0.243 2.009,0.653 2.733,1.232 0.725,0.581 1.314,1.532 1.772,2.86 0.458,1.325 0.686,3.133 0.686,5.424 0,2.289 -0.228,4.047 -0.686,5.272 -0.458,1.226 -1.098,2.182 -1.92,2.869 -0.824,0.688 -1.868,1.151 -3.134,1.393 C 7.653,-0.095 5.8,0 3.042,0 L 0,0 Z m -6.769,5.011 12.371,0 c 2.79,0 4.917,-0.191 6.38,-0.566 1.967,-0.512 3.651,-1.422 5.054,-2.728 1.402,-1.307 2.469,-2.906 3.201,-4.799 0.732,-1.892 1.097,-4.226 1.097,-6.999 0,-2.438 -0.343,-4.539 -1.028,-6.303 -0.838,-2.156 -2.035,-3.898 -3.59,-5.233 -1.175,-1.01 -2.759,-1.798 -4.757,-2.363 -1.494,-0.418 -3.491,-0.628 -5.991,-0.628 l -12.737,0 0,29.619 z"
                 style="fill:#110f0d;fill-opacity:1;fill-rule:nonzero;stroke:none"
                 id="path3440"
                 inkscape:connector-curvature="0" />
            </g>
            <g
               id="g3442"
               transform="translate(191.6665,112.5098)">
              <path
                 d="m 0,0 6.769,0 0,-16.042 c 0,-2.544 0.084,-4.196 0.252,-4.95 0.289,-1.21 0.979,-2.186 2.068,-2.919 1.091,-0.735 2.581,-1.101 4.471,-1.101 1.921,0 3.369,0.347 4.344,1.04 0.977,0.694 1.564,1.547 1.762,2.557 0.198,1.01 0.297,2.686 0.297,5.03 l 0,16.385 6.769,0 0,-15.557 c 0,-3.555 -0.183,-6.067 -0.549,-7.535 -0.367,-1.469 -1.04,-2.707 -2.024,-3.717 -0.983,-1.009 -2.298,-1.815 -3.944,-2.415 -1.647,-0.599 -3.797,-0.899 -6.449,-0.899 -3.201,0 -5.629,0.327 -7.283,0.98 -1.655,0.653 -2.962,1.501 -3.922,2.546 -0.96,1.042 -1.593,2.138 -1.898,3.283 C 0.221,-21.617 0,-19.112 0,-15.8 L 0,0 Z"
                 style="fill:#110f0d;fill-opacity:1;fill-rule:nonzero;stroke:none"
                 id="path3444"
                 inkscape:connector-curvature="0" />
            </g>
            <g
               id="g3446"
               transform="translate(248.1528,93.7813)">
              <path
                 d="m 0,0 6.563,-1.84 c -1.006,-3.231 -2.68,-5.632 -5.02,-7.201 -2.34,-1.568 -5.309,-2.354 -8.906,-2.354 -4.452,0 -8.111,1.344 -10.976,4.031 -2.866,2.686 -4.299,6.36 -4.299,11.02 0,4.929 1.44,8.757 4.322,11.486 2.881,2.728 6.669,4.091 11.364,4.091 4.101,0 7.432,-1.07 9.993,-3.213 1.524,-1.264 2.668,-3.083 3.43,-5.453 l -6.7,-1.416 c -0.396,1.537 -1.224,2.747 -2.48,3.637 -1.259,0.89 -2.787,1.334 -4.585,1.334 -2.485,0 -4.501,-0.79 -6.048,-2.364 -1.548,-1.575 -2.323,-4.128 -2.323,-7.656 0,-3.746 0.764,-6.412 2.288,-8 1.524,-1.59 3.506,-2.385 5.945,-2.385 1.799,0 3.347,0.504 4.642,1.514 1.296,1.01 2.226,2.601 2.79,4.769"
                 style="fill:#110f0d;fill-opacity:1;fill-rule:nonzero;stroke:none"
                 id="path3448"
                 inkscape:connector-curvature="0" />
            </g>
            <g
               id="g3450"
               transform="translate(269.2407,82.8906)">
              <path
                 d="m 0,0 0,24.608 -9.948,0 0,5.011 26.641,0 0,-5.011 -9.924,0 L 6.769,0 0,0 Z"
                 style="fill:#110f0d;fill-opacity:1;fill-rule:nonzero;stroke:none"
                 id="path3452"
                 inkscape:connector-curvature="0" />
            </g>
            <path
               d="m 291.267,112.51 6.769,0 0,-29.619 -6.769,0 0,29.619 z"
               style="fill:#110f0d;fill-opacity:1;fill-rule:nonzero;stroke:none"
               id="path3454"
               inkscape:connector-curvature="0" />
            <g
               id="g3456"
               transform="translate(314.2065,82.8906)">
              <path
                 d="m 0,0 -11.982,29.619 7.34,0 8.484,-21.921 8.209,21.921 7.18,0 L 7.226,0 0,0 Z"
                 style="fill:#110f0d;fill-opacity:1;fill-rule:nonzero;stroke:none"
                 id="path3458"
                 inkscape:connector-curvature="0" />
            </g>
            <g
               id="g3460"
               transform="translate(338.0615,82.8906)">
              <path
                 d="m 0,0 0,29.619 24.856,0 0,-5.011 -18.087,0 0,-6.565 16.83,0 0,-4.99 -16.83,0 0,-8.062 18.728,0 L 25.497,0 0,0 Z"
                 style="fill:#110f0d;fill-opacity:1;fill-rule:nonzero;stroke:none"
                 id="path3462"
                 inkscape:connector-curvature="0" />
            </g>
            <g
               id="g3464"
               transform="translate(384.6748,82.8906)">
              <path
                 d="m 0,0 0,29.619 6.769,0 0,-11.657 13.263,0 0,11.657 6.768,0 0,-29.619 -6.768,0 0,12.951 -13.263,0 L 6.769,0 0,0 Z"
                 style="fill:#110f0d;fill-opacity:1;fill-rule:nonzero;stroke:none"
                 id="path3466"
                 inkscape:connector-curvature="0" />
            </g>
            <g
               id="g3468"
               transform="translate(437.4106,94.6094)">
              <path
                 d="M 0,0 -4.619,10.989 -9.146,0 0,0 Z m 12.462,-11.719 -7.363,0 -2.927,6.73 -13.399,0 -2.768,-6.73 -7.18,0 13.057,29.619 7.157,0 13.423,-29.619 z"
                 style="fill:#110f0d;fill-opacity:1;fill-rule:nonzero;stroke:none"
                 id="path3470"
                 inkscape:connector-curvature="0" />
            </g>
            <g
               id="g3472"
               transform="translate(454.7017,82.8906)">
              <path
                 d="m 0,0 0,29.619 6.586,0 13.721,-19.779 0,19.779 6.288,0 L 26.595,0 19.803,0 6.29,19.315 6.29,0 0,0 Z"
                 style="fill:#110f0d;fill-opacity:1;fill-rule:nonzero;stroke:none"
                 id="path3474"
                 inkscape:connector-curvature="0" />
            </g>
            <g
               id="g3476"
               transform="translate(496.3701,107.499)">
              <path
                 d="m 0,0 0,-19.617 5.054,0 c 1.89,0 3.256,0.094 4.092,0.283 1.098,0.243 2.01,0.653 2.734,1.232 0.724,0.581 1.314,1.532 1.773,2.86 0.455,1.325 0.684,3.133 0.684,5.424 0,2.289 -0.229,4.047 -0.684,5.272 -0.459,1.226 -1.098,2.182 -1.923,2.869 -0.822,0.688 -1.866,1.151 -3.132,1.393 C 7.653,-0.095 5.8,0 3.042,0 L 0,0 Z m -6.769,5.011 12.372,0 c 2.79,0 4.917,-0.191 6.379,-0.566 1.968,-0.512 3.651,-1.422 5.055,-2.728 1.401,-1.307 2.469,-2.906 3.201,-4.799 0.732,-1.892 1.097,-4.226 1.097,-6.999 0,-2.438 -0.342,-4.539 -1.029,-6.303 -0.839,-2.156 -2.035,-3.898 -3.59,-5.233 -1.174,-1.01 -2.759,-1.798 -4.756,-2.363 -1.494,-0.418 -3.491,-0.628 -5.991,-0.628 l -12.738,0 0,29.619 z"
                 style="fill:#110f0d;fill-opacity:1;fill-rule:nonzero;stroke:none"
                 id="path3478"
                 inkscape:connector-curvature="0" />
            </g>
            <g
               id="g3480"
               transform="translate(522.9014,92.5283)">
              <path
                 d="m 0,0 6.585,0.566 c 0.396,-1.955 1.201,-3.387 2.412,-4.303 1.211,-0.916 2.848,-1.374 4.906,-1.374 2.178,0 3.822,0.407 4.928,1.222 1.106,0.815 1.658,1.767 1.658,2.859 0,0.7 -0.233,1.298 -0.698,1.788 -0.466,0.491 -1.276,0.92 -2.436,1.283 -0.793,0.242 -2.599,0.672 -5.42,1.293 C 8.308,4.129 5.763,5.105 4.298,6.264 2.241,7.892 1.211,9.88 1.211,12.223 c 0,1.507 0.483,2.919 1.452,4.233 0.969,1.313 2.363,2.313 4.185,2.999 1.822,0.687 4.021,1.031 6.597,1.031 4.207,0 7.374,-0.815 9.501,-2.445 2.128,-1.63 3.243,-3.805 3.35,-6.525 l -6.769,-0.261 c -0.289,1.518 -0.91,2.615 -1.864,3.282 -0.953,0.666 -2.382,0.999 -4.287,0.999 -1.966,0 -3.506,-0.357 -4.619,-1.071 -0.717,-0.457 -1.074,-1.069 -1.074,-1.838 0,-0.7 0.336,-1.3 1.006,-1.799 0.854,-0.632 2.928,-1.292 6.22,-1.978 3.293,-0.688 5.728,-1.399 7.306,-2.133 1.578,-0.734 2.811,-1.736 3.704,-3.01 0.892,-1.271 1.339,-2.845 1.339,-4.718 0,-1.696 -0.535,-3.286 -1.603,-4.767 -1.066,-1.482 -2.575,-2.582 -4.526,-3.302 -1.952,-0.721 -4.384,-1.081 -7.296,-1.081 -4.237,0 -7.493,0.865 -9.763,2.596 C 1.799,-5.835 0.441,-3.313 0,0"
                 style="fill:#110f0d;fill-opacity:1;fill-rule:nonzero;stroke:none"
                 id="path3482"
                 inkscape:connector-curvature="0" />
            </g>
            <path
               d="m 556.247,96.468 12.622,0 0,-5.677 -12.622,0 0,5.677 z"
               style="fill:#110f0d;fill-opacity:1;fill-rule:nonzero;stroke:none"
               id="path3484"
               inkscape:connector-curvature="0" />
            <g
               id="g3486"
               transform="translate(573.834,82.8906)">
              <path
                 d="m 0,0 0,29.619 22.981,0 0,-5.011 -16.213,0 0,-7.009 13.997,0 0,-5.012 -13.997,0 L 6.768,0 0,0 Z"
                 style="fill:#110f0d;fill-opacity:1;fill-rule:nonzero;stroke:none"
                 id="path3488"
                 inkscape:connector-curvature="0" />
            </g>
            <g
               id="g3490"
               transform="translate(610.3574,99.9844)">
              <path
                 d="m 0,0 5.009,0 c 3.246,0 5.274,0.12 6.082,0.362 0.807,0.242 1.44,0.659 1.899,1.252 0.455,0.594 0.684,1.334 0.684,2.223 0,0.998 -0.3,1.802 -0.903,2.415 C 12.169,6.864 11.319,7.251 10.222,7.414 9.674,7.48 8.027,7.515 5.283,7.515 L 0,7.515 0,0 Z m -6.769,-17.094 0,29.619 14.248,0 c 3.583,0 6.184,-0.266 7.808,-0.797 1.625,-0.534 2.924,-1.48 3.9,-2.839 C 20.16,7.528 20.65,5.971 20.65,4.221 20.65,2 19.91,0.164 18.431,-1.283 c -1.478,-1.449 -3.688,-2.362 -6.63,-2.738 1.461,-0.754 2.671,-1.583 3.623,-2.486 0.954,-0.902 2.237,-2.505 3.854,-4.806 l 4.093,-5.781 -8.096,0 -4.892,6.446 c -1.738,2.304 -2.928,3.754 -3.569,4.355 -0.639,0.599 -1.319,1.01 -2.036,1.231 -0.715,0.222 -1.85,0.333 -3.406,0.333 l -1.372,0 0,-12.365 -6.769,0 z"
                 style="fill:#110f0d;fill-opacity:1;fill-rule:nonzero;stroke:none"
                 id="path3492"
                 inkscape:connector-curvature="0" />
            </g>
            <g
               id="g3494"
               transform="translate(638.5576,82.8906)">
              <path
                 d="m 0,0 0,29.619 24.856,0 0,-5.011 -18.087,0 0,-6.565 16.83,0 0,-4.99 -16.83,0 0,-8.062 18.728,0 L 25.497,0 0,0 Z"
                 style="fill:#110f0d;fill-opacity:1;fill-rule:nonzero;stroke:none"
                 id="path3496"
                 inkscape:connector-curvature="0" />
            </g>
            <g
               id="g3498"
               transform="translate(670.9658,82.8906)">
              <path
                 d="m 0,0 0,29.619 24.856,0 0,-5.011 -18.087,0 0,-6.565 16.829,0 0,-4.99 -16.829,0 0,-8.062 18.727,0 L 25.496,0 0,0 Z"
                 style="fill:#110f0d;fill-opacity:1;fill-rule:nonzero;stroke:none"
                 id="path3500"
                 inkscape:connector-curvature="0" />
            </g>
            <g
               id="g3502"
               transform="translate(739.0049,93.7813)">
              <path
                 d="m 0,0 6.563,-1.84 c -1.008,-3.231 -2.679,-5.632 -5.02,-7.201 -2.341,-1.568 -5.31,-2.354 -8.907,-2.354 -4.451,0 -8.11,1.344 -10.976,4.031 -2.867,2.686 -4.3,6.36 -4.3,11.02 0,4.929 1.442,8.757 4.323,11.486 2.881,2.728 6.669,4.091 11.365,4.091 4.1,0 7.432,-1.07 9.993,-3.213 1.523,-1.264 2.667,-3.083 3.431,-5.453 L -0.229,9.151 c -0.397,1.537 -1.224,2.747 -2.482,3.637 -1.257,0.89 -2.785,1.334 -4.584,1.334 -2.486,0 -4.502,-0.79 -6.049,-2.364 -1.547,-1.575 -2.32,-4.128 -2.32,-7.656 0,-3.746 0.763,-6.412 2.287,-8 1.523,-1.59 3.506,-2.385 5.945,-2.385 1.799,0 3.347,0.504 4.643,1.514 C -1.495,-3.759 -0.565,-2.168 0,0"
                 style="fill:#110f0d;fill-opacity:1;fill-rule:nonzero;stroke:none"
                 id="path3504"
                 inkscape:connector-curvature="0" />
            </g>
            <g
               id="g3506"
               transform="translate(752.5684,82.8906)">
              <path
                 d="m 0,0 0,29.619 6.77,0 0,-11.657 13.261,0 0,11.657 6.77,0 0,-29.619 -6.77,0 0,12.951 -13.261,0 L 6.77,0 0,0 Z"
                 style="fill:#110f0d;fill-opacity:1;fill-rule:nonzero;stroke:none"
                 id="path3508"
                 inkscape:connector-curvature="0" />
            </g>
            <g
               id="g3510"
               transform="translate(805.3057,94.6094)">
              <path
                 d="M 0,0 -4.621,10.989 -9.147,0 0,0 Z m 12.462,-11.719 -7.363,0 -2.927,6.73 -13.401,0 -2.768,-6.73 -7.179,0 13.058,29.619 7.155,0 13.425,-29.619 z"
                 style="fill:#110f0d;fill-opacity:1;fill-rule:nonzero;stroke:none"
                 id="path3512"
                 inkscape:connector-curvature="0" />
            </g>
            <g
               id="g3514"
               transform="translate(829.3193,99.9844)">
              <path
                 d="m 0,0 5.008,0 c 3.247,0 5.274,0.12 6.082,0.362 0.807,0.242 1.442,0.659 1.898,1.252 0.458,0.594 0.687,1.334 0.687,2.223 0,0.998 -0.301,1.802 -0.904,2.415 C 12.169,6.864 11.319,7.251 10.223,7.414 9.674,7.48 8.026,7.515 5.282,7.515 L 0,7.515 0,0 Z m -6.769,-17.094 0,29.619 14.247,0 c 3.583,0 6.186,-0.266 7.808,-0.797 1.624,-0.534 2.924,-1.48 3.901,-2.839 0.974,-1.361 1.462,-2.918 1.462,-4.668 0,-2.221 -0.741,-4.057 -2.219,-5.504 -1.478,-1.449 -3.688,-2.362 -6.63,-2.738 1.462,-0.754 2.671,-1.583 3.623,-2.486 0.954,-0.902 2.237,-2.505 3.854,-4.806 l 4.094,-5.781 -8.098,0 -4.89,6.446 c -1.738,2.304 -2.929,3.754 -3.57,4.355 -0.639,0.599 -1.318,1.01 -2.035,1.231 -0.715,0.222 -1.85,0.333 -3.406,0.333 l -1.372,0 0,-12.365 -6.769,0 z"
                 style="fill:#110f0d;fill-opacity:1;fill-rule:nonzero;stroke:none"
                 id="path3516"
                 inkscape:connector-curvature="0" />
            </g>
            <g
               id="g3518"
               transform="translate(873.1143,93.7813)">
              <path
                 d="m 0,0 0,4.989 14.59,0 0,-11.798 c -1.418,-1.211 -3.472,-2.279 -6.162,-3.2 -2.693,-0.924 -5.417,-1.386 -8.177,-1.386 -3.506,0 -6.563,0.649 -9.169,1.952 -2.606,1.297 -4.566,3.157 -5.877,5.575 -1.312,2.416 -1.966,5.048 -1.966,7.889 0,3.083 0.732,5.825 2.195,8.221 1.462,2.397 3.605,4.237 6.425,5.516 2.151,0.982 4.826,1.475 8.028,1.475 4.161,0 7.412,-0.771 9.752,-2.312 2.34,-1.543 3.845,-3.676 4.515,-6.396 L 7.431,9.413 c -0.472,1.455 -1.36,2.605 -2.663,3.445 -1.303,0.843 -2.929,1.264 -4.881,1.264 -2.959,0 -5.31,-0.828 -7.056,-2.485 -1.745,-1.657 -2.618,-4.115 -2.618,-7.374 0,-3.516 0.885,-6.152 2.652,-7.91 1.769,-1.756 4.085,-2.636 6.951,-2.636 1.418,0 2.84,0.247 4.266,0.737 1.425,0.492 2.648,1.089 3.672,1.787 L 7.754,0 0,0 Z"
                 style="fill:#110f0d;fill-opacity:1;fill-rule:nonzero;stroke:none"
                 id="path3520"
                 inkscape:connector-curvature="0" />
            </g>
            <path
               d="m 894.912,112.51 6.77,0 0,-29.619 -6.77,0 0,29.619 z"
               style="fill:#110f0d;fill-opacity:1;fill-rule:nonzero;stroke:none"
               id="path3522"
               inkscape:connector-curvature="0" />
            <g
               id="g3524"
               transform="translate(909.3691,82.8906)">
              <path
                 d="m 0,0 0,29.619 6.584,0 13.721,-19.779 0,19.779 6.289,0 L 26.594,0 19.802,0 6.287,19.315 6.287,0 0,0 Z"
                 style="fill:#110f0d;fill-opacity:1;fill-rule:nonzero;stroke:none"
                 id="path3526"
                 inkscape:connector-curvature="0" />
            </g>
            <g
               id="g3528"
               transform="translate(959.8857,93.7813)">
              <path
                 d="m 0,0 0,4.989 14.589,0 0,-11.798 c -1.417,-1.211 -3.472,-2.279 -6.162,-3.2 -2.691,-0.924 -5.417,-1.386 -8.175,-1.386 -3.507,0 -6.563,0.649 -9.169,1.952 -2.608,1.297 -4.567,3.157 -5.879,5.575 -1.31,2.416 -1.966,5.048 -1.966,7.889 0,3.083 0.733,5.825 2.197,8.221 1.462,2.397 3.604,4.237 6.424,5.516 2.151,0.982 4.827,1.475 8.027,1.475 4.162,0 7.412,-0.771 9.753,-2.312 2.339,-1.543 3.845,-3.676 4.516,-6.396 L 7.433,9.413 c -0.474,1.455 -1.362,2.605 -2.664,3.445 -1.305,0.843 -2.931,1.264 -4.883,1.264 -2.959,0 -5.309,-0.828 -7.056,-2.485 -1.744,-1.657 -2.618,-4.115 -2.618,-7.374 0,-3.516 0.885,-6.152 2.653,-7.91 1.769,-1.756 4.086,-2.636 6.952,-2.636 1.418,0 2.838,0.247 4.265,0.737 1.425,0.492 2.647,1.089 3.67,1.787 L 7.752,0 0,0 Z"
                 style="fill:#110f0d;fill-opacity:1;fill-rule:nonzero;stroke:none"
                 id="path3530"
                 inkscape:connector-curvature="0" />
            </g>
          </g>
        </g>
      </g>
      <rect
         y="815.33618"
         x="-178.6181"
         height="122.63386"
         width="155.72835"
         id="rect3549"
         style="fill:#ffffff;fill-opacity:0.70689655;stroke:none;stroke-width:2;stroke-linejoin:round;stroke-miterlimit:4;stroke-dasharray:none;stroke-opacity:1" />
      <rect
         y="903.03662"
         x="-178.6181"
         height="34.933464"
         width="155.72835"
         id="rect4783"
         style="fill:#ffffff;fill-opacity:1;stroke:none;stroke-width:2.27086639;stroke-linejoin:round;stroke-miterlimit:4;stroke-dasharray:none;stroke-opacity:1" />
    </g>
    <g
       id="g4179"
       transform="matrix(0.24585333,0,0,0.24585333,-54.528347,216.41989)">
      <path
         inkscape:connector-curvature="0"
         id="path4173"
         d="m 385.33785,64.322151 c -0.0919,-0.0129 -0.40502,-0.0505 -0.69591,-0.0836 -2.89231,-0.32902 -5.77732,-1.70951 -7.95531,-3.80664 -3.45559,-3.32729 -4.94493,-8.11923 -4.00646,-12.89078 0.80849,-4.11071 3.63731,-7.79849 7.45226,-9.71509 1.8549,-0.93189 3.69096,-1.38972 5.84566,-1.45765 1.82801,-0.0576 3.57908,0.2118 5.17525,0.79626 0.76986,0.28191 2.22118,1.01022 2.89732,1.45397 4.79229,3.14518 7.17892,8.80646 6.09027,14.44665 -0.42523,2.20306 -1.43691,4.35213 -2.89301,6.14553 -0.53711,0.66153 -1.70167,1.78686 -2.36543,2.28576 -1.90144,1.42915 -4.11611,2.36201 -6.4548,2.71886 -0.55453,0.0846 -2.71506,0.15923 -3.08984,0.10671 z m 3.30539,-0.5772 c 3.81494,-0.68265 7.04747,-2.80776 9.15048,-6.01566 0.84877,-1.29469 1.60019,-3.12033 1.90299,-4.62344 0.21419,-1.06327 0.27365,-1.66155 0.27365,-2.75322 0,-1.55332 -0.19962,-2.7929 -0.68886,-4.27753 -1.13908,-3.45664 -3.73245,-6.39391 -7.04021,-7.97382 -1.87536,-0.89574 -3.71499,-1.31455 -5.78998,-1.31815 -2.08839,-0.004 -3.99384,0.41715 -5.84566,1.29087 -3.74096,1.76505 -6.56383,5.29274 -7.45442,9.31565 -0.24937,1.12647 -0.2842,1.49874 -0.28239,3.01865 0.001,1.2628 0.0182,1.53985 0.13062,2.17125 0.33742,1.89436 1.06093,3.71427 2.09158,5.26109 2.18891,3.28518 5.60634,5.42513 9.5509,5.98063 0.90383,0.12729 3.09729,0.0855 4.0013,-0.0763 z m -2.7765,-2.2642 c -1.74949,-0.13173 -3.01596,-0.47059 -4.45383,-1.19168 -1.04305,-0.52309 -2.17856,-1.33617 -2.86229,-2.04954 -0.1198,-0.12499 -0.2388,-0.21429 -0.26444,-0.19845 -0.0256,0.0159 -0.0466,0.004 -0.0466,-0.0271 0,-0.0308 -0.1784,-0.2765 -0.39644,-0.5461 -1.37101,-1.69518 -2.16434,-3.47515 -2.46724,-5.53572 -0.11397,-0.77526 -0.11391,-2.30126 0,-3.11878 0.3437,-2.46424 1.50832,-4.73809 3.31871,-6.47955 1.9403,-1.86644 4.281,-2.9002 6.99912,-3.09114 3.61461,-0.25391 7.14501,1.30981 9.43412,4.17866 3.14832,3.94567 3.2223,9.60686 0.17807,13.6261 -0.56504,0.74602 -1.0572,1.26987 -1.69152,1.80045 -1.63949,1.37138 -3.54832,2.23395 -5.5765,2.51994 -0.61203,0.0863 -1.74332,0.14513 -2.17125,0.11291 z m 2.28259,-0.35165 c 0.77116,-0.13314 1.64089,-0.3744 2.28259,-0.63318 0.5665,-0.22846 0.57524,-0.25058 0.36027,-0.91144 -0.16137,-0.49609 -0.66282,-1.3752 -1.51108,-2.64917 -1.30284,-1.95669 -1.86567,-2.52001 -2.74214,-2.74456 -0.92403,-0.23672 -1.60458,0.14058 -3.36424,1.86514 -0.83869,0.82197 -1.57045,1.67254 -1.85156,2.15222 -0.085,0.14514 -0.25185,0.52742 -0.37065,0.84952 l -0.21601,0.58562 0.12943,0.0995 c 0.27676,0.21274 1.40511,0.7266 2.11371,0.96262 0.7883,0.26256 1.60811,0.44428 2.38603,0.5289 0.68546,0.0745 2.03893,0.0234 2.78365,-0.10515 z m 3.95278,-1.4705 c 0.19903,-0.12431 0.49298,-0.32163 0.65322,-0.43849 l 0.29135,-0.21247 -0.39838,-0.3656 c -0.21911,-0.20108 -0.49288,-0.48427 -0.60838,-0.62933 -0.61219,-0.76889 -1.62357,-2.83053 -2.08182,-4.24369 -0.18764,-0.57867 -0.20334,-0.67583 -0.1837,-1.13692 0.0265,-0.62322 0.18791,-0.99121 0.62554,-1.42663 0.59118,-0.58818 1.18845,-0.8387 3.17316,-1.33092 1.55099,-0.38466 2.52183,-0.55974 3.16372,-0.57056 0.35774,-0.006 0.54279,-0.0304 0.54282,-0.0714 0,-0.20825 -0.31038,-1.73265 -0.36566,-1.79502 -0.01,-0.0111 -0.22746,0.0942 -0.48367,0.23382 -0.25622,0.13966 -0.6852,0.3175 -0.95331,0.39519 -1.22485,0.35495 -4.10152,0.58833 -5.15163,0.41794 -0.94765,-0.15376 -1.62833,-0.82411 -1.86762,-1.83928 -0.15395,-0.6531 -0.0756,-2.12481 0.22501,-4.22596 0.20734,-1.44916 0.36014,-1.92407 0.75514,-2.34692 0.0814,-0.0872 0.131,-0.16905 0.11014,-0.18193 -0.0897,-0.0555 -0.96868,-0.25692 -1.45472,-0.33344 -0.60215,-0.0948 -1.61418,-0.17496 -1.61418,-0.12785 0,0.0173 0.064,0.26499 0.14215,0.55043 0.1802,0.65791 0.22583,1.39751 0.13867,2.24773 -0.15737,1.53507 -0.58116,3.4329 -0.92129,4.12572 -0.24,0.48886 -0.66851,0.90177 -1.12733,1.08627 -0.27831,0.11192 -0.41409,0.12841 -1.04368,0.12672 -0.71041,-0.002 -0.7376,-0.007 -1.47533,-0.25641 -1.62697,-0.55088 -3.59695,-1.39376 -4.15526,-1.77788 -0.14816,-0.10194 -0.42265,-0.34089 -0.60998,-0.53101 l -0.3406,-0.34566 -0.25317,0.45487 c -0.35435,0.63666 -0.93203,2.06336 -0.93203,2.30184 0,0.057 0.14843,0.0738 0.65416,0.0742 1.05092,6.3e-4 1.87994,0.24956 3.6127,1.08483 2.29966,1.10853 2.87882,1.63659 2.99933,2.73469 0.0437,0.39858 -0.0878,1.08655 -0.28916,1.51252 -0.28805,0.60929 -1.69379,2.59132 -2.62538,3.70165 -0.44444,0.52971 -0.82759,0.86684 -1.35557,1.19273 l -0.33673,0.20784 0.43794,0.42042 c 0.45132,0.43326 1.3932,1.16694 1.50083,1.16907 0.0334,6.7e-4 0.0907,-0.0987 0.12726,-0.22069 0.32179,-1.07402 0.86731,-1.86467 2.23218,-3.23517 1.81114,-1.81859 2.60168,-2.28428 3.57854,-2.10802 0.44056,0.0795 1.02803,0.38602 1.41146,0.73645 0.3535,0.32308 0.97453,1.15252 1.76819,2.36158 0.9972,1.5191 1.41706,2.32476 1.50982,2.8971 l 0.0381,0.23519 0.28763,-0.14572 c 0.1582,-0.0802 0.45047,-0.24744 0.64951,-0.37174 z m -6.10741,-6.26954 c -0.22557,-0.13754 -0.35065,-0.37757 -0.35065,-0.67289 0,-0.78895 1.03369,-1.05287 1.44994,-0.37021 0.20786,0.3409 0.0898,0.829 -0.25155,1.03997 -0.23499,0.14523 -0.6124,0.14662 -0.84774,0.003 z m 0.83458,-0.27198 c 0.057,-0.057 0.11749,-0.20683 0.13441,-0.33295 0.0278,-0.20721 0.0118,-0.24824 -0.16566,-0.42572 -0.21776,-0.21776 -0.39221,-0.24772 -0.65404,-0.11232 -0.19878,0.10279 -0.27725,0.23989 -0.27725,0.48443 0,0.49793 0.60728,0.74182 0.96254,0.38656 z m 1.61503,-1.84359 c -0.23014,-0.14033 -0.35065,-0.37866 -0.35065,-0.69347 0,-0.20081 0.0341,-0.29024 0.1698,-0.44474 0.62613,-0.71313 1.70226,-0.0142 1.29606,0.84183 -0.18292,0.38549 -0.73042,0.53099 -1.11521,0.29638 z m 0.75137,-0.20582 c 0.28726,-0.18129 0.30813,-0.56866 0.0448,-0.83195 -0.21042,-0.21042 -0.3877,-0.23925 -0.64692,-0.1052 -0.19879,0.10279 -0.27725,0.23989 -0.27725,0.48443 0,0.23272 0.12964,0.42262 0.3551,0.52016 0.18483,0.08 0.31779,0.0628 0.52423,-0.0674 z m -5.31655,-0.29524 c -0.47758,-0.2912 -0.45786,-1.0536 0.0338,-1.30786 0.50102,-0.25909 1.1179,0.093 1.11848,0.6384 6.1e-4,0.59025 -0.65629,0.9719 -1.15231,0.66946 z m 0.76709,-0.27633 c 0.12048,-0.12049 0.16273,-0.21556 0.16273,-0.36616 0,-0.46899 -0.58568,-0.70937 -0.90818,-0.37275 -0.32238,0.33649 -0.0846,0.90164 0.37929,0.90164 0.1506,0 0.24568,-0.0422 0.36616,-0.16273 z m 1.89203,-1.83188 c -0.35387,-0.18978 -0.48161,-0.61362 -0.30017,-0.99597 0.13935,-0.29367 0.37184,-0.41642 0.73737,-0.38931 0.26198,0.0194 0.32577,0.0489 0.48714,0.22498 0.15624,0.17048 0.18565,0.24468 0.18548,0.46788 -5.6e-4,0.62445 -0.57186,0.98093 -1.10982,0.69242 z m 0.725,-0.27595 c 0.13665,-0.1221 0.17347,-0.19997 0.17347,-0.36693 0,-0.49232 -0.56175,-0.71756 -0.91316,-0.36616 -0.15044,0.15044 -0.16614,0.19626 -0.13834,0.40354 0.0622,0.46403 0.53073,0.63987 0.87803,0.32955 z m 6.77582,9.74465 c 1.74472,-1.7304 2.77074,-3.7143 3.1635,-6.11691 0.10463,-0.6401 0.14546,-2.36506 0.058,-2.45188 -0.095,-0.0943 -1.12269,-0.0288 -1.84596,0.11764 -1.83337,0.37124 -3.62009,0.8686 -4.17545,1.16229 -0.486,0.25701 -0.98637,0.77742 -1.13854,1.18415 -0.14961,0.39986 -0.16036,0.86214 -0.0316,1.35859 0.24499,0.94452 1.2209,3.09191 1.84336,4.05617 0.30212,0.468 1.19436,1.3974 1.34312,1.39903 0.0373,5.6e-4 0.38989,-0.31867 0.78353,-0.70908 z M 378.706,57.565411 c 0.43789,-0.25167 0.91005,-0.65593 1.32029,-1.13044 0.54535,-0.63079 1.57944,-2.02127 2.15186,-2.89349 0.60816,-0.92668 0.76576,-1.34809 0.76576,-2.04755 0,-0.60747 -0.16402,-0.97079 -0.63278,-1.40171 -0.72184,-0.66357 -3.04675,-1.81234 -4.53711,-2.24186 -0.41803,-0.12048 -0.60596,-0.14219 -1.23067,-0.14219 l -0.7373,0 -0.0915,0.43146 c -0.56889,2.68301 -0.0836,5.50016 1.35322,7.85596 0.36566,0.59952 1.23237,1.7337 1.32485,1.7337 0.0155,0 0.15653,-0.0737 0.31336,-0.16388 z m 15.01062,-9.38305 c 1.19514,-0.15714 1.8549,-0.32909 2.49366,-0.6499 0.31513,-0.15826 0.5863,-0.30935 0.60261,-0.33574 0.0581,-0.094 -0.2765,-0.9607 -0.68076,-1.76314 -1.03888,-2.06212 -2.70147,-3.73933 -4.74866,-4.7904 -0.74997,-0.38505 -1.39134,-0.63135 -1.54416,-0.59299 -0.17078,0.0429 -0.49086,0.47308 -0.63136,0.8486 -0.23665,0.6325 -0.61324,3.57538 -0.61324,4.79219 0,0.69258 0.0901,1.10572 0.34579,1.58542 0.27544,0.51679 0.74239,0.8617 1.33941,0.98937 0.35756,0.0765 2.64257,0.021 3.43671,-0.0834 z m -9.01077,-0.98503 c 0.37939,-0.17601 0.71862,-0.5026 0.90586,-0.87211 0.44301,-0.87424 0.97951,-3.60686 0.97827,-4.98279 -5.6e-4,-0.53753 -0.1367,-1.27271 -0.33002,-1.78114 l -0.06,-0.15781 -0.43105,0.0369 c -2.34862,0.20123 -4.24448,0.9124 -5.99657,2.24942 -0.81109,0.61893 -1.63141,1.46345 -2.23263,2.29846 l -0.31442,0.4367 0.20951,0.25568 c 0.28137,0.34338 0.74375,0.69971 1.25014,0.96343 0.81175,0.42273 2.93676,1.26328 4.02352,1.59151 0.38977,0.11771 0.54957,0.13607 1.07056,0.12298 0.52383,-0.0132 0.65788,-0.0365 0.92684,-0.16127 z m -114.61092,16.28973 c -0.0919,-0.0129 -0.40502,-0.0505 -0.69591,-0.0836 -2.89231,-0.32903 -5.77732,-1.70952 -7.95531,-3.80665 -4.85205,-4.67191 -5.68662,-12.13143 -1.98723,-17.76215 1.99481,-3.03625 5.04485,-5.15581 8.60639,-5.98085 1.6629,-0.38522 3.74903,-0.43899 5.49508,-0.14165 1.33345,0.22708 2.43804,0.59284 3.77446,1.24982 1.48193,0.72852 2.63013,1.55326 3.77093,2.70863 1.14538,1.16 1.89088,2.21378 2.63378,3.72289 0.95499,1.93991 1.41733,3.92073 1.41733,6.07225 0,3.3123 -1.0759,6.35608 -3.14945,8.90996 -0.53711,0.66153 -1.70167,1.78686 -2.36543,2.28576 -1.90144,1.42915 -4.11611,2.362 -6.4548,2.71885 -0.55453,0.0846 -2.71506,0.15923 -3.08984,0.10672 z m 3.30539,-0.5772 c 3.7887,-0.67796 6.99279,-2.77083 9.1018,-5.94518 1.59791,-2.40506 2.41438,-5.47303 2.2091,-8.30093 -0.25234,-3.47625 -1.6479,-6.48078 -4.12907,-8.8896 -2.56281,-2.48808 -5.82586,-3.81996 -9.37376,-3.82611 -2.08839,-0.004 -3.99384,0.41715 -5.84566,1.29087 -3.74096,1.76504 -6.56383,5.29273 -7.45442,9.31565 -0.24937,1.12647 -0.2842,1.49873 -0.2824,3.01865 0.001,1.2628 0.0182,1.53984 0.13063,2.17124 0.33742,1.89437 1.06093,3.71427 2.09157,5.26109 2.18892,3.28519 5.60635,5.42513 9.55091,5.98064 0.90383,0.12728 3.09729,0.0855 4.0013,-0.0763 z m -3.67751,-2.43136 c -2.2735,-0.32914 -4.40918,-1.37137 -6.10101,-2.97737 -0.22263,-0.21133 -0.42931,-0.38424 -0.4593,-0.38424 -0.03,0 -0.0545,-0.0219 -0.0545,-0.0487 0,-0.0268 -0.17971,-0.27107 -0.39935,-0.54281 -0.83678,-1.03527 -1.6125,-2.42498 -1.98497,-3.55608 -1.42938,-4.34077 -0.0828,-9.10258 3.40237,-12.03164 2.65812,-2.23397 6.10975,-3.09745 9.5194,-2.38143 1.60856,0.3378 3.20709,1.09398 4.57774,2.1655 0.55038,0.43026 1.56555,1.47065 1.99019,2.03962 1.45759,1.953 2.21312,4.24049 2.21312,6.70055 0,5.64834 -4.17186,10.35311 -9.79698,11.04843 -0.64892,0.0802 -2.25427,0.0627 -2.90669,-0.0318 z m 2.29283,-0.13432 c 0.94898,-0.0722 1.90996,-0.26545 2.72916,-0.54893 0.85191,-0.29481 1.05547,-0.38411 1.0625,-0.46611 0.0469,-0.5467 -0.31666,-1.29277 -1.51119,-3.10164 -1.41873,-2.14836 -1.91609,-2.66692 -2.80606,-2.92564 -0.96313,-0.27999 -1.70342,0.13545 -3.56843,2.00254 -1.34928,1.35078 -1.76602,1.93456 -2.12586,2.97796 -0.12382,0.35903 -0.13806,0.45194 -0.08,0.52192 0.13241,0.15955 1.44542,0.76484 2.19203,1.01052 1.05737,0.34794 1.77467,0.47588 3.2449,0.57873 0.0612,0.004 0.44956,-0.0179 0.86293,-0.0494 z m 5.064,-1.64379 c 0.2615,-0.16262 0.55941,-0.36663 0.66203,-0.45335 l 0.18657,-0.15767 -0.4522,-0.40831 c -0.57993,-0.52365 -0.97552,-1.12042 -1.64717,-2.48489 -0.5587,-1.13498 -1.03409,-2.34472 -1.14402,-2.91119 -0.19861,-1.02347 0.32446,-1.99976 1.36857,-2.55438 0.88077,-0.46785 4.37892,-1.303 5.52358,-1.3187 0.56895,-0.008 0.57018,-0.008 0.57032,-0.147 2.8e-4,-0.29718 -0.24155,-1.52182 -0.32825,-1.6621 -0.0347,-0.0562 -0.17229,-0.007 -0.59573,0.21119 -0.30281,0.15636 -0.74857,0.33379 -0.99059,0.39429 -1.20463,0.30115 -3.67306,0.50851 -4.72829,0.39721 -1.16791,-0.12318 -1.78657,-0.63497 -2.13328,-1.76474 -0.0795,-0.25908 -0.10005,-0.49615 -0.0939,-1.08325 0.0114,-1.08373 0.28039,-3.49743 0.49478,-4.43991 0.0948,-0.41693 0.34882,-0.93708 0.5484,-1.12316 0.0796,-0.0742 0.14476,-0.15347 0.14476,-0.17608 0,-0.0469 -1.01683,-0.29619 -1.55884,-0.38216 -0.19903,-0.0316 -0.62839,-0.0737 -0.95414,-0.0937 l -0.59226,-0.0363 0.16575,0.63432 c 0.16064,0.61473 0.16487,0.66352 0.13708,1.58075 -0.0563,1.85974 -0.5795,4.25364 -1.09987,5.03291 -0.54377,0.81429 -1.59475,1.13406 -2.789,0.84857 -0.83002,-0.19841 -3.16224,-1.09154 -4.17735,-1.59971 -0.54277,-0.27172 -1.03161,-0.62512 -1.34159,-0.96989 l -0.25522,-0.28387 -0.15166,0.23969 c -0.31773,0.5022 -0.90905,1.89024 -1.04233,2.44675 l -0.0352,0.14716 0.84859,0.023 c 0.79966,0.0217 0.88286,0.0347 1.44336,0.22584 1.7804,0.60721 4.03032,1.79758 4.51457,2.38854 0.37464,0.45721 0.45831,0.71654 0.45515,1.41079 -0.004,0.93694 -0.19113,1.35313 -1.31165,2.92132 -1.37112,1.91889 -2.02,2.6547 -2.77524,3.14702 l -0.51243,0.33404 0.38034,0.35297 c 0.37068,0.34401 1.51206,1.23371 1.5827,1.23371 0.0195,0 0.10484,-0.19416 0.18976,-0.43147 0.38214,-1.06792 0.87758,-1.75916 2.22484,-3.1041 1.0072,-1.00546 1.69681,-1.57198 2.25371,-1.85144 0.39041,-0.19592 0.44472,-0.20801 0.92649,-0.20629 0.4899,0.002 0.53256,0.0121 0.9984,0.24297 0.60349,0.29903 0.98838,0.67119 1.64692,1.59241 1.46464,2.04886 2.29386,3.50011 2.37073,4.14912 l 0.0321,0.27123 0.28262,-0.14322 c 0.15544,-0.0788 0.49658,-0.27626 0.75809,-0.43888 z m -6.18314,-6.21938 c -0.49995,-0.33399 -0.48836,-1.01201 0.0226,-1.32357 0.51733,-0.31544 1.15177,0.0539 1.15177,0.67052 0,0.63148 -0.65853,0.99767 -1.1744,0.65305 z m 0.72293,-0.1871 c 0.0713,-0.0499 0.16488,-0.1752 0.20799,-0.27837 0.0674,-0.16127 0.0674,-0.21388 0,-0.37516 -0.0946,-0.22644 -0.28389,-0.36915 -0.48962,-0.36915 -0.45084,0 -0.73537,0.44932 -0.52494,0.82897 0.14992,0.27048 0.55727,0.36832 0.80657,0.19371 z m 1.84371,-1.84127 c -0.15816,-0.0576 -0.38727,-0.31363 -0.44961,-0.50253 -0.2138,-0.64782 0.43931,-1.20903 1.09042,-0.93698 0.53742,0.22455 0.55833,1.12055 0.0325,1.39247 -0.16257,0.0841 -0.50566,0.10804 -0.6733,0.047 z m 0.60589,-0.2743 c 0.0713,-0.0499 0.16489,-0.1752 0.20799,-0.27837 0.14623,-0.34998 -0.13225,-0.74431 -0.52564,-0.74431 -0.23954,0 -0.56661,0.3042 -0.56661,0.52699 0,0.45921 0.5201,0.75076 0.88426,0.49569 z m -5.20363,-0.26672 c -0.74281,-0.32342 -0.51551,-1.42403 0.29409,-1.42403 0.47358,0 0.74078,0.26523 0.74037,0.7349 -5e-4,0.56502 -0.52184,0.91233 -1.03446,0.68913 z m 0.67607,-0.31365 c 0.17334,-0.16284 0.20879,-0.34903 0.11102,-0.58302 -0.0935,-0.22389 -0.39073,-0.38391 -0.61054,-0.32874 -0.19399,0.0487 -0.36629,0.25685 -0.40377,0.48783 -0.0289,0.17813 -0.009,0.22483 0.1707,0.40474 0.17992,0.17991 0.22661,0.1996 0.40474,0.1707 0.11075,-0.018 0.25828,-0.0862 0.32785,-0.15151 z m 1.93246,-1.80242 c -0.36055,-0.16257 -0.5244,-0.73054 -0.31367,-1.08728 0.29048,-0.49175 1.11697,-0.43379 1.33741,0.0938 0.26499,0.63421 -0.39662,1.27627 -1.02374,0.9935 z m 0.59231,-0.22394 c 0.42068,-0.21754 0.31635,-0.87904 -0.1568,-0.99413 -0.21222,-0.0516 -0.49951,0.099 -0.58665,0.30752 -0.10261,0.24558 -0.0522,0.46132 0.147,0.62892 0.18707,0.15741 0.3695,0.17505 0.59645,0.0577 z m 6.73273,9.7918 c 1.67109,-1.59003 2.73499,-3.50193 3.21473,-5.7771 0.11527,-0.54665 0.14874,-0.89339 0.17388,-1.80139 l 0.0311,-1.12444 -0.1538,-0.0386 c -0.68029,-0.17075 -4.88626,0.7684 -5.94474,1.3274 -0.73466,0.38798 -1.20276,1.04792 -1.24987,1.7621 -0.04,0.60618 0.35643,1.76862 1.16571,3.41823 0.5987,1.22037 1.01028,1.83619 1.58921,2.37784 0.26132,0.24449 0.49313,0.44453 0.51515,0.44453 0.022,0 0.31837,-0.26485 0.65859,-0.58857 z m -14.82806,-0.94307 c 0.67847,-0.48174 1.81977,-1.86152 3.01628,-3.64656 0.66925,-0.99843 0.85298,-1.46172 0.85298,-2.1508 0,-1.06844 -0.51316,-1.58842 -2.58879,-2.62316 -0.90496,-0.45115 -1.85744,-0.8397 -2.5418,-1.03691 -0.52824,-0.15222 -1.57259,-0.24157 -1.85551,-0.15875 -0.15593,0.0456 -0.1721,0.0776 -0.26231,0.51808 -0.24379,1.19043 -0.27314,2.81587 -0.0713,3.94899 0.34238,1.92226 1.25552,3.85686 2.47362,5.24068 l 0.28717,0.32625 0.17781,-0.0903 c 0.0978,-0.0497 0.32814,-0.19705 0.51186,-0.3275 z m 14.50279,-9.12894 c 1.40984,-0.17411 2.0568,-0.34487 2.76749,-0.73046 0.25138,-0.13639 0.46866,-0.26674 0.48282,-0.28967 0.0408,-0.066 -0.3859,-1.15066 -0.68954,-1.75289 -0.85366,-1.69315 -2.15125,-3.13249 -3.81341,-4.22996 -0.51681,-0.34123 -1.59503,-0.8868 -2.15654,-1.09117 l -0.31934,-0.11623 -0.20277,0.20276 c -0.26102,0.26102 -0.49262,0.76601 -0.60432,1.31766 -0.13525,0.66794 -0.35306,2.45895 -0.42871,3.52517 -0.0603,0.85005 -0.0575,1.00313 0.0251,1.38368 0.23539,1.0847 0.80008,1.69903 1.71024,1.86057 0.41728,0.0741 2.37629,0.0258 3.22903,-0.0795 z m -8.81189,-1.03556 c 0.44359,-0.22674 0.77971,-0.60761 0.96148,-1.08949 0.45989,-1.21923 0.9709,-4.20443 0.86865,-5.07445 -0.0406,-0.34565 -0.2962,-1.39942 -0.36731,-1.51449 -0.0397,-0.0643 -0.16178,-0.0656 -0.7612,-0.008 -2.20115,0.20986 -4.24634,1.03508 -5.92463,2.39054 -0.94913,0.76655 -2.32965,2.37615 -2.25087,2.62435 0.0702,0.22132 0.85016,0.87671 1.35063,1.13498 0.93226,0.4811 3.26802,1.39975 4.2181,1.65898 0.29738,0.0811 0.5252,0.1018 0.96156,0.0872 0.52153,-0.0174 0.60454,-0.0358 0.94359,-0.20914 z m 16.99719,12.76575 c -0.30053,-0.16631 -0.44677,-0.49723 -0.44677,-1.01099 0,-0.23371 0.0356,-0.56172 0.0791,-0.72891 0.2002,-0.76938 0.30181,-3.31004 0.20477,-5.11969 -0.24742,-4.6139 -1.03039,-7.74036 -2.49007,-9.94305 -0.76908,-1.16057 -1.92897,-2.40045 -3.16623,-3.3846 -0.68337,-0.54358 -2.07956,-1.48925 -2.83037,-1.91709 -1.37805,-0.78525 -3.26084,-1.40774 -5.01951,-1.65955 -0.8881,-0.12715 -2.99535,-0.14305 -3.8136,-0.0288 -3.20894,0.44819 -6.00156,1.80342 -8.34661,4.05054 -2.52517,2.41971 -3.84505,5.2297 -4.12903,8.79055 -0.10534,1.3209 0.0143,2.9077 0.35058,4.64869 0.15504,0.80279 0.17778,1.03792 0.18032,1.86504 0.003,0.92434 -0.047,1.60922 -0.12642,1.73775 -0.0851,0.13768 -5.76799,-0.32874 -6.9133,-0.56741 -1.61987,-0.33755 -2.67014,-1.00428 -4.11019,-2.60921 -0.96742,-1.0782 -1.15195,-1.32251 -1.42688,-1.88918 -0.31824,-0.65591 -0.44671,-1.20413 -0.59001,-2.5176 -0.21172,-1.94055 -0.34908,-2.38379 -1.51828,-4.89922 -0.42036,-0.90436 -0.51912,-1.24702 -0.60149,-2.08698 -0.0678,-0.69166 3.6e-4,-1.66263 0.15283,-2.17623 0.26703,-0.89948 1.05377,-1.90032 1.84468,-2.34669 0.35593,-0.20087 0.41972,-0.29092 0.54318,-0.76676 0.30087,-1.15967 1.88576,-3.67123 3.40778,-5.40027 2.1527,-2.445513 4.59037,-4.21474 7.30221,-5.299856 4.02171,-1.609246 13.62835,-4.330877 20.38302,-5.77466 2.54652,-0.544308 4.78013,-1.13868 6.93595,-1.845681 1.58577,-0.520054 1.45299,-0.45406 18.2282,-9.0597776 4.21027,-2.159874 8.10598,-4.138117 8.65714,-4.396096 5.50327,-2.575883 10.6579,-3.91362824 19.76388,-5.12918124 5.08335,-0.67857296 8.88734,-0.96320596 15.03169,-1.12474096 2.72249,-0.07157 10.90018,-0.03695 13.58419,0.05751 7.20934,0.253735 11.14307,0.52534396 17.871,1.23392296 4.87338,0.51326 11.32587,1.31103104 13.7219,1.69654304 1.47044,0.23659 1.82199,0.5080812 1.92387,1.4857362 0.0291,0.279359 0.0828,0.444026 0.20857,0.640239 0.0931,0.145283 1.46698,1.554371 3.05296,3.131306 1.58598,1.576935 3.23857,3.242947 3.67243,3.7022486 1.91174,2.023821 4.05976,4.690288 5.96216,7.401159 0.32103,0.457467 0.61933,0.847931 0.66288,0.867699 0.61604,0.279632 1.1224,0.563467 1.47952,0.829327 0.6251,0.465358 1.2102,1.022461 1.49922,1.427491 0.4907,0.687657 0.97524,1.89079 1.2766,3.169858 0.35472,1.50553 0.47463,2.638133 0.49809,4.704361 0.0211,1.86135 0.0815,2.64798 0.27772,3.61874 0.26041,1.28826 0.39679,1.46781 1.64922,2.17124 2.07533,1.16562 2.33276,1.60329 2.25947,3.84143 -0.0579,1.76639 -0.4336,4.20256 -1.02185,6.62508 -0.24089,0.99205 -0.25162,1.07297 -0.29151,2.19908 -0.0353,0.99687 -0.0588,1.21351 -0.15974,1.47033 -0.23487,0.59787 -0.80875,1.30766 -1.44935,1.79261 -0.9603,0.72696 -3.21412,1.61743 -6.04956,2.39015 -0.58178,0.15854 -1.1247,0.32272 -1.20649,0.36484 -0.38472,0.1981 -0.51901,0.62645 -0.60051,1.91546 -0.0796,1.25854 -0.17754,1.56916 -0.5238,1.6609 -0.44708,0.11847 -1.26471,-0.40518 -1.58656,-1.0161 -0.25901,-0.49165 -0.27553,-1.00836 -0.11542,-3.60941 0.14644,-2.37885 -0.11854,-5.01319 -0.7629,-7.58472 -0.52401,-2.09122 -1.32042,-3.50819 -2.75603,-4.90353 -0.97641,-0.94902 -1.82234,-1.52653 -3.3045,-2.25595 -1.41,-0.6939 -2.317,-0.96517 -4.06412,-1.21548 -3.84515,-0.5509 -7.80683,-0.0382 -10.74773,1.39081 -1.37177,0.66658 -2.7703,1.73408 -4.20045,3.20623 -2.03722,2.09703 -3.42629,4.41958 -4.15498,6.94721 -0.28176,0.97733 -0.39522,1.74148 -0.46344,3.12106 -0.0333,0.67364 -0.0853,1.55049 -0.11551,1.94855 -0.068,0.89568 -0.28343,3.3371 -0.29556,3.34944 -0.005,0.005 -4.51841,0.0364 -10.03003,0.0699 -11.94918,0.0725 -21.01703,0.15228 -25.8879,0.22768 -9.26586,0.14341 -27.6771,0.27641 -38.41981,0.27751 l -4.06963,5.6e-4 -0.43988,0.43294 c -1.26681,1.24683 -3.66116,2.22524 -4.41911,1.8058 z m 1.08989,-0.42916 c 1.2857,-0.35242 2.46072,-1.03714 3.22044,-1.87666 l 0.30902,-0.34147 12.59606,-0.0436 c 12.77733,-0.0442 22.45338,-0.11837 28.15663,-0.21592 6.46136,-0.11051 26.77722,-0.27748 33.83696,-0.2781 2.85741,0 3.63952,-0.0152 3.65833,-0.0699 0.0409,-0.11907 0.14331,-1.17006 0.11657,-1.1968 -0.0139,-0.0139 -1.69926,-0.0512 -3.74516,-0.0828 -4.76699,-0.0737 -12.11408,-0.0203 -52.09958,0.37831 -7.89999,0.0788 -16.35531,0.14779 -18.78961,0.15341 l -4.42599,0.0102 -0.3062,-0.15686 c -0.36091,-0.18488 -0.67992,-0.47733 -0.8685,-0.79618 -0.10763,-0.18197 -0.30214,-1.04937 -0.94258,-4.2033 -0.44384,-2.18571 -0.83475,-4.06171 -0.86869,-4.16888 -0.20736,-0.65465 -0.68904,-1.30321 -1.3695,-1.84395 -0.38747,-0.30791 -1.11127,-0.7526 -1.15453,-0.70934 -0.0113,0.0113 0.0663,0.20783 0.17239,0.43683 0.84241,1.81871 1.40358,4.51468 1.63414,7.85077 0.0731,1.05847 0.0723,3.65639 -0.002,4.64554 -0.0321,0.43041 -0.10903,1.0331 -0.17091,1.3393 -0.15638,0.77378 -0.0919,1.11719 0.23436,1.24762 0.19779,0.0791 0.25342,0.0737 0.80786,-0.0783 z m 114.70702,-2.32455 c 0.0359,-0.0995 0.10077,-0.64365 0.14423,-1.20918 0.0435,-0.56554 0.11612,-1.15587 0.16147,-1.31186 0.12444,-0.42807 0.35862,-0.71236 0.73547,-0.89286 0.17829,-0.0854 0.33248,-0.16117 0.34263,-0.16837 0.0263,-0.0186 -0.13881,-1.63518 -0.30081,-2.94538 -0.33501,-2.70937 -0.7279,-4.57677 -1.15948,-5.51084 -0.41013,-0.88767 -1.08951,-1.74311 -1.59396,-2.007 -0.22799,-0.11928 -1.07481,-0.18647 -1.13442,-0.09 -0.0205,0.0332 0.0155,0.16385 0.08,0.29034 0.52845,1.03583 1.09924,3.39964 1.36367,5.64733 0.14832,1.26073 0.17285,3.70022 0.0527,5.24068 -0.13911,1.78354 -0.0552,2.25218 0.48674,2.71933 0.24516,0.21132 0.57884,0.41195 0.69239,0.4163 0.0353,10e-4 0.0935,-0.079 0.12935,-0.17847 z m -145.67438,-0.57842 c 0.0195,-0.14206 0.0354,-0.59188 0.0354,-0.99959 l 0,-0.74129 -0.18094,-0.0313 c -0.24986,-0.0432 -3.85039,-0.33975 -5.44203,-0.4482 -2.05921,-0.14031 -3.42854,-0.37621 -4.60407,-0.79316 -0.37558,-0.13321 -0.4476,-0.14535 -0.40648,-0.0685 0.10549,0.19711 1.43733,1.49505 1.78979,1.74423 0.51934,0.36717 1.34029,0.74231 1.98052,0.90501 0.75407,0.19164 2.69996,0.40846 5.41571,0.60344 1.54009,0.11057 1.37075,0.13104 1.41209,-0.17062 z m 39.05436,-0.88761 c 0.0111,-0.009 -0.009,-0.30024 -0.0456,-0.64643 -0.0361,-0.34619 -0.0801,-1.26146 -0.0976,-2.03394 -0.0278,-1.22572 -0.0433,-1.40762 -0.12138,-1.42902 -0.0492,-0.0135 -0.23981,-0.0405 -0.42353,-0.0601 -0.59546,-0.0635 -1.49239,-0.3066 -1.95288,-0.52932 -1.21716,-0.58868 -2.02713,-1.55524 -3.05658,-3.64749 -1.55246,-3.1552 -3.11847,-8.05782 -3.67225,-11.49646 -0.20126,-1.24976 -0.25613,-1.98752 -0.29191,-3.92494 -0.0308,-1.66831 -0.0269,-1.7602 0.11763,-2.755806 0.21603,-1.488214 0.45276,-2.953558 0.65038,-4.02583 0.0949,-0.514792 0.16161,-0.946881 0.14829,-0.960198 -0.0636,-0.06359 -3.36346,0.400583 -6.36197,0.894894 -5.97171,0.984449 -12.14435,2.246427 -19.59686,4.006521 -2.13111,0.503309 -5.22794,1.262869 -5.25738,1.289469 -0.0133,0.012 0.006,0.0515 0.0418,0.0877 0.19736,0.19737 -0.006,0.60307 -0.64404,1.28172 -0.26788,0.28515 -1.10341,1.23182 -1.85673,2.1037 -1.48899,1.72334 -2.56504,2.87302 -2.99817,3.20333 l -0.27586,0.21037 0.0949,0.1655 c 0.16952,0.29552 0.64386,0.77636 0.98169,0.99515 0.55046,0.35649 0.9072,0.43748 2.17525,0.49383 0.61241,0.0272 2.61914,0.11525 4.45942,0.19565 l 3.34596,0.14617 0.453,-0.36573 c 2.14678,-1.73319 4.8319,-2.86131 7.57377,-3.18205 0.90284,-0.10561 2.67382,-0.10561 3.57666,0 2.44419,0.28591 4.4797,1.04877 6.66559,2.49809 1.31681,0.87309 2.05887,1.47289 3.07446,2.48505 0.94229,0.93912 1.5165,1.64665 2.0286,2.49958 0.27156,0.45231 0.31183,0.49277 0.70048,0.70384 0.71823,0.39006 1.06652,0.64601 1.58658,1.16599 0.40904,0.40897 0.5507,0.59657 0.73827,0.97773 0.22283,0.45277 0.26452,0.63217 1.04116,4.4801 0.44497,2.20465 0.84913,4.10191 0.89812,4.21613 0.19167,0.44685 0.76561,0.87966 1.3053,0.98435 0.21482,0.0417 4.94452,0.0156 4.99547,-0.0275 z m 16.4591,-0.13691 c 6.2465,-0.0597 15.29057,-0.14585 20.09792,-0.19149 4.80736,-0.0456 11.63425,-0.11077 15.17087,-0.14474 7.50141,-0.0721 18.205,-0.0846 20.49776,-0.0241 l 1.59681,0.0422 0.0314,-0.18768 c 0.0403,-0.24115 0.18291,-2.33051 0.25218,-3.69507 0.0596,-1.17471 0.18424,-1.92795 0.48274,-2.91825 0.78561,-2.6063 2.20354,-4.94977 4.27631,-7.0676 1.77319,-1.81174 3.37623,-2.92845 5.33227,-3.71457 2.93101,-1.17795 6.8542,-1.48262 10.64357,-0.82655 1.14104,0.19755 1.99109,0.44331 2.85,0.82396 l 0.54641,0.24216 0.33669,-0.26322 c 0.80584,-0.63003 1.86998,-1.0623 3.28051,-1.3326 0.81405,-0.156 1.36492,-0.21435 2.6513,-0.28086 3.23975,-0.16749 4.33082,-0.3665 4.64203,-0.84671 0.0771,-0.11899 0.67135,-2.16159 0.63535,-2.18388 -0.009,-0.006 -0.20408,-0.0839 -0.4336,-0.17403 -1.16456,-0.45752 -3.18262,-1.81412 -6.04075,-4.060797 -0.55116,-0.433247 -1.3075,-1.018925 -1.68073,-1.301505 -0.97233,-0.736142 -1.21305,-1.154426 -0.97461,-1.693465 0.26846,-0.606907 1.02704,-0.88899 2.86693,-1.066085 1.74862,-0.168309 6.87435,-0.396475 7.57788,-0.33732 0.52778,0.04438 1.16164,0.199383 1.48047,0.362037 l 0.2321,0.11841 -0.0389,-0.128898 c -0.63402,-2.100153 -0.98867,-2.717469 -2.08647,-3.631741 -0.72684,-0.605329 -1.52711,-1.088221 -1.80578,-1.089628 -0.0593,-2.78e-4 -0.15948,-0.04688 -0.22269,-0.103515 -0.0632,-0.05663 -0.27778,-0.146998 -0.47681,-0.200807 -1.47979,-0.400077 -3.72695,-1.167414 -4.37359,-1.493456 -1.64652,-0.830178 -4.48767,-3.648891 -8.40158,-8.3352336 -2.15041,-2.57481 -3.35609,-4.394409 -4.06899,-6.140876 -0.10246,-0.251 -0.21884,-0.474626 -0.25862,-0.496947 -0.13981,-0.07845 -5.28332,-0.7283472 -9.56455,-1.2084962 -10.56466,-1.18485304 -15.9604,-1.50636404 -25.2755,-1.50607004 -5.96121,1.89e-4 -9.80579,0.133012 -14.55846,0.50297 -6.23795,0.485575 -10.7468,1.20886104 -16.65526,2.67174624 -4.64202,1.149325 -8.07715,2.337948 -11.82143,4.090456 -1.48784,0.69638 -12.75745,6.3544306 -14.35702,7.2081186 -0.8078,0.431125 -2.48634,1.343494 -3.73008,2.027486 -4.48051,2.464044 -6.00214,3.216464 -7.95476,3.933509 l -0.51582,0.189422 -0.17229,0.446606 c -0.39101,1.013602 -1.08352,3.133738 -1.03792,3.177632 0.008,0.0079 0.22789,-0.02037 0.48816,-0.06285 0.97931,-0.159832 3.51543,-0.521993 4.45246,-0.63582 0.5351,-0.065 0.97396,-0.122976 0.97526,-0.128833 0.1642,-0.745466 0.41134,-1.561199 0.57872,-1.910154 1.1133,-2.321135 3.84407,-4.396781 10.55603,-8.023601 5.62908,-3.041687 11.8294,-5.8924316 16.56291,-7.6151966 6.96729,-2.535752 13.89988,-3.7688602 24.07853,-4.2828822 8.78104,-0.44344304 18.05095,-0.39583404 27.00137,0.138673 3.38695,0.202264 6.34697,0.4613602 7.65176,0.6697712 3.28578,0.524833 5.29311,2.018288 5.75729,4.283427 0.44012,2.147741 0.88423,13.0853936 0.64739,15.9441966 -0.18552,2.239316 -0.92024,4.716751 -2.0966,7.069573 -0.49164,0.98333 -0.66557,1.27717 -1.73391,2.92941 -4.88926,7.56148 -8.23284,11.91797 -10.92185,14.23053 -2.79527,2.40395 -4.23864,3.01197 -7.71069,3.24814 -1.85989,0.1265 -7.20076,0.2638 -19.56903,0.50305 -19.08669,0.36921 -33.90465,0.57788 -38.92798,0.54819 l -3.15814,-0.0187 -0.033,0.22269 c -0.0367,0.248 0.0594,2.39452 0.1422,3.17336 0.0293,0.27558 0.0537,0.54728 0.0542,0.60378 9.5e-4,0.0988 0.0935,0.10137 2.43668,0.067 1.33963,-0.0196 7.54646,-0.0846 13.79296,-0.14424 z m -55.54865,-1.18071 c -0.0162,-0.13013 -0.0938,-0.57875 -0.17261,-0.99692 -0.29545,-1.56852 -0.3955,-3.5259 -0.25446,-4.97825 0.30955,-3.18752 1.72054,-6.11374 4.04304,-8.38477 l 0.55136,-0.53914 -0.3921,-0.0311 c -0.40899,-0.0325 -3.24988,-0.15803 -5.73669,-0.25351 -2.3919,-0.0918 -2.54946,-0.10379 -2.9273,-0.22206 -0.67541,-0.21141 -1.28955,-0.66414 -1.69033,-1.24605 l -0.20858,-0.30285 -0.62107,0.2966 c -1.21677,0.58109 -2.7119,1.00968 -3.72006,1.06638 -0.57205,0.0322 -0.60294,0.028 -0.84685,-0.11496 -0.13923,-0.0816 -0.2762,-0.18956 -0.30439,-0.23993 -0.0459,-0.082 -0.0796,-0.0751 -0.32228,0.0658 -0.5436,0.31561 -1.60155,1.5812 -1.41708,1.69521 0.073,0.0451 0.97681,0.13312 2.31715,0.22567 1.53404,0.10592 4.54483,0.17508 6.8458,0.15726 l 2.33826,-0.0181 0.2572,0.15121 c 0.44464,0.26139 0.55452,0.73166 0.30936,1.32413 -0.15584,0.37662 -0.86513,1.5931 -1.16121,1.99156 -0.26697,0.35929 -0.68722,0.64535 -1.13121,0.77002 -0.44481,0.1249 -3.45865,0.17241 -5.12191,0.0807 -1.89126,-0.10423 -3.63822,-0.30788 -4.31096,-0.50253 -0.10514,-0.0304 -0.1994,-0.0471 -0.20946,-0.037 -0.0101,0.0101 0.16677,0.41674 0.39296,0.90373 0.81058,1.74525 1.02317,2.46772 1.20245,4.08664 0.19625,1.77218 0.37633,2.41685 0.8792,3.14751 0.31527,0.45809 0.47377,0.57253 1.1142,0.80446 1.61108,0.58345 2.26071,0.687 6.13703,0.97818 1.58118,0.11878 2.46353,0.19417 4.11311,0.35145 0.0585,0.006 0.0698,-0.0491 0.0474,-0.22929 z m 149.63548,-1.49972 c 2.059,-0.64379 3.64563,-1.34264 4.32573,-1.90533 0.72531,-0.60008 1.19697,-1.3051 1.3257,-1.98154 0.033,-0.17355 0.043,-0.53486 0.023,-0.83486 -0.0442,-0.66457 0.0173,-1.10035 0.36463,-2.58157 0.33692,-1.43701 0.823,-4.13163 0.75717,-4.19746 -0.0111,-0.0111 -0.19188,0.066 -0.4017,0.17127 -1.36916,0.68718 -3.54471,1.18122 -5.47557,1.24343 -1.16101,0.0374 -1.57668,-0.03 -2.25475,-0.36563 -0.805,-0.39846 -1.22636,-0.83143 -2.14122,-2.20025 -0.71196,-1.06524 -0.78161,-1.19341 -0.78161,-1.4382 0,-0.43611 0.28981,-0.52417 2.61326,-0.79409 4.39679,-0.5108 5.39517,-0.69514 6.26474,-1.15672 0.32694,-0.17355 0.80959,-0.58105 0.80857,-0.68266 -5.6e-4,-0.0282 -0.23027,-0.17656 -0.51106,-0.32966 -0.2808,-0.1531 -0.67925,-0.3965 -0.88544,-0.54088 -0.322,-0.22549 -0.40277,-0.31826 -0.57261,-0.65775 -0.10875,-0.21738 -0.2402,-0.59288 -0.29211,-0.83446 l -0.0944,-0.43923 -0.16476,0.13864 c -0.55536,0.4673 -1.09162,0.45319 -2.51234,-0.0661 -0.46214,-0.16893 -0.86129,-0.31188 -0.887,-0.31765 -0.0257,-0.006 -0.17894,0.46131 -0.34053,1.03798 -0.16159,0.57666 -0.34294,1.1153 -0.403,1.19696 -0.37211,0.50598 -1.35775,0.69626 -4.5265,0.87387 -2.51835,0.14115 -3.81601,0.39537 -5.07793,0.9948 -0.49393,0.23462 -1.24238,0.75137 -1.17704,0.81265 0.0261,0.0245 0.28441,0.17522 0.57405,0.33498 1.84163,1.01585 3.29097,2.3502 4.22746,3.89208 0.15638,0.25747 0.28432,0.48279 0.28432,0.5007 -10e-6,0.0179 0.26931,0.0326 0.59848,0.0326 0.55847,0 0.6183,0.011 0.89464,0.16405 0.57762,0.31997 1.33916,1.32907 1.73225,2.29536 0.47933,1.17828 1.07749,4.59109 1.31068,7.4782 0.0186,0.22965 0.0467,0.50748 0.0626,0.61739 l 0.0289,0.19984 0.70645,-0.19114 c 0.38854,-0.10513 1.10711,-0.31642 1.59682,-0.46954 z m -97.7334,-1.49481 c 10.83131,-0.14088 26.43265,-0.41273 26.48136,-0.46145 0.0134,-0.0134 -0.0516,-0.54723 -0.14451,-1.18618 -0.60111,-4.13292 -0.85717,-7.47053 -0.86222,-11.23853 -0.004,-2.8642 0.0234,-3.33763 0.33472,-5.81782 0.4413,-3.515688 0.98501,-6.259852 1.63539,-8.254051 0.12131,-0.371963 0.21523,-0.680291 0.20871,-0.685172 -0.0259,-0.01937 -8.94147,0.46779 -24.53577,1.340676 -6.38153,0.357204 -7.48743,0.431522 -7.82204,0.52565 -0.81562,0.229436 -1.36501,0.301075 -2.33827,0.304909 -0.59027,0.0023 -1.07214,-0.02385 -1.28047,-0.06956 -0.26374,-0.05786 -0.5215,-0.06109 -1.22481,-0.01533 -2.05216,0.133532 -4.99579,0.196075 -6.06072,0.12877 -1.11345,-0.07037 -1.46105,-0.15007 -2.00262,-0.45917 -0.98184,-0.560379 -1.4849,-1.310649 -1.48425,-2.213619 3.9e-4,-0.512653 0.0589,-0.74707 0.31589,-1.264471 0.97725,-1.967761 3.83805,-3.900258 11.31944,-7.6464 6.86096,-3.43548 14.3454,-6.6578306 18.12153,-7.8020486 3.47821,-1.053946 7.65586,-1.821788 12.55424,-2.307441 2.61636,-0.2594 6.21239,-0.502394 8.38247,-0.566427 l 1.28417,-0.03789 0.17874,-0.723535 c 0.0983,-0.3979452 0.16798,-0.7342912 0.15484,-0.7474372 -0.0131,-0.01315 -0.62136,0.0033 -1.35157,0.03664 -12.39127,0.5650392 -19.59089,1.9319342 -28.10633,5.3361682 -4.95292,1.980036 -11.51209,5.1708396 -16.59053,8.0707096 -4.50163,2.570502 -6.78217,4.418119 -7.74943,6.27835 -0.28623,0.550462 -0.51639,1.316712 -0.76647,2.551739 -0.34471,1.702291 -0.83391,4.804612 -0.92731,5.88067 -0.0822,0.94679 0.0437,3.6145 0.23651,5.01057 0.57175,4.14061 2.89705,10.92464 4.63683,13.52791 1.19047,1.7813 2.38463,2.36922 5.20681,2.56346 0.70743,0.0487 5.76637,0.0239 12.19567,-0.0597 z m 17.75965,-19.48571 c -0.56364,-0.0764 -1.09979,-0.27307 -1.5282,-0.56063 -0.34707,-0.23296 -0.75439,-0.65591 -0.75439,-0.78333 0,-0.0251 -0.25337,-0.0456 -0.56306,-0.0456 -0.48018,0 -0.59576,-0.0184 -0.78517,-0.12482 -0.5723,-0.32165 -0.56607,-1.194737 0.0106,-1.488941 0.17881,-0.09122 0.3283,-0.112095 0.80272,-0.112095 l 0.58299,0 0.11878,-0.1668 c 0.26271,-0.368938 1.0118,-0.798873 1.69596,-0.973372 0.43632,-0.111287 1.50099,-0.110185 1.97861,0.002 0.55801,0.131125 1.14839,0.449309 1.51627,0.817198 l 0.32093,0.320925 0.82118,1.11e-4 c 0.67068,5.6e-5 0.85668,0.01793 1.01492,0.09743 0.60293,0.302926 0.60411,1.205288 0.002,1.525258 -0.16257,0.0864 -0.32207,0.10309 -0.98474,0.10309 l -0.79074,0 -0.17977,0.25031 c -0.59321,0.82604 -1.99526,1.31316 -3.27887,1.13921 z m 1.53101,-0.30249 c 0.53586,-0.14008 1.02044,-0.40641 1.3598,-0.74735 l 0.31039,-0.31184 -1.32224,-0.0149 c -0.72722,-0.008 -1.91659,-0.008 -2.64302,0 l -1.32079,0.0149 0.21027,0.23269 c 0.71937,0.79607 2.17273,1.14878 3.40559,0.8265 z m 3.72684,-1.47367 c 0.27812,-0.26131 0.27914,-0.671064 0.002,-0.94788 l -0.1408,-0.140808 -4.23067,-0.01494 c -4.65146,-0.01643 -4.46548,-0.02921 -4.64572,0.319321 -0.10718,0.207268 -0.10726,0.40863 0,0.61558 0.178,0.34422 -0.0217,0.33054 4.6296,0.3171 l 4.24059,-0.0122 0.14487,-0.13612 z m -2.4372,-1.591377 c -0.53819,-0.495301 -1.34122,-0.767562 -2.26392,-0.767562 -0.92129,0 -1.69502,0.263654 -2.26025,0.770198 l -0.27286,0.244535 2.53311,2.78e-4 2.53312,2.79e-4 -0.2692,-0.24774 z m 13.60286,22.269227 c 11.75196,-0.23534 14.83157,-0.341 16.36784,-0.56156 2.26906,-0.32577 3.76064,-1.12719 6.2627,-3.36492 2.13244,-1.90716 4.66378,-5.08992 8.16687,-10.26854 1.0489,-1.55059 3.03232,-4.60112 3.43437,-5.28211 1.10669,-1.874512 2.03671,-4.259649 2.45826,-6.304537 0.28157,-1.365842 0.29126,-1.493837 0.31791,-4.196625 0.0487,-4.936128 -0.33312,-12.2740876 -0.71432,-13.7294466 -0.60218,-2.299062 -2.65936,-3.635045 -6.28593,-4.082228 -2.88971,-0.356324 -7.78416,-0.6730222 -13.86255,-0.8969862 -3.90044,-0.143714 -13.97739,-0.119865 -16.34926,0.03869 l -0.51032,0.03411 -0.17871,0.7187122 c -0.0983,0.395291 -0.16928,0.727031 -0.15776,0.737199 0.0115,0.01017 0.72243,0.0025 1.57979,-0.01714 2.35865,-0.0539 14.3011,-0.02312 17.64832,0.0455 7.44757,0.152667 9.75881,0.293802 11.94755,0.729575 2.41364,0.480549 3.59213,1.328607 3.98722,2.86925 0.13739,0.535758 0.13424,2.657724 -0.006,3.8099966 -0.3611,2.974216 -1.07023,5.697953 -1.92851,7.407377 -0.56952,1.134324 -1.44771,2.110544 -2.27289,2.526633 -0.75611,0.381262 -1.44562,0.452149 -10.30806,1.059741 -9.2448,0.633805 -25.0636,1.643999 -25.74365,1.643999 -0.11183,0 -0.1535,0.09142 -0.4124,0.904685 -0.48787,1.532505 -0.79898,2.882365 -1.15081,4.993206 -0.39797,2.38768 -0.65682,4.52698 -0.75824,6.26664 -0.0719,1.2327 -0.0366,5.06879 0.0591,6.43022 0.20238,2.8788 0.50803,5.69428 0.87566,8.06608 l 0.0896,0.57807 1.67596,-0.0368 c 0.92178,-0.0203 3.51734,-0.0737 5.76792,-0.11877 z m 27.00136,-18.90169 c -0.56364,-0.0764 -1.09979,-0.27307 -1.5282,-0.56063 -0.34707,-0.23296 -0.75439,-0.65591 -0.75439,-0.78333 0,-0.0251 -0.25338,-0.0456 -0.56306,-0.0456 -0.48019,0 -0.59576,-0.0184 -0.78517,-0.12482 -0.5723,-0.32165 -0.56607,-1.194737 0.0106,-1.488941 0.17881,-0.09122 0.3283,-0.112095 0.80272,-0.112095 l 0.58299,0 0.11878,-0.1668 c 0.26271,-0.368938 1.0118,-0.798873 1.69595,-0.973372 0.43632,-0.111287 1.501,-0.110185 1.97861,0.002 0.55802,0.131125 1.1484,0.449309 1.51628,0.817198 l 0.32093,0.320925 0.82117,1.11e-4 c 0.67069,5.6e-5 0.85669,0.01793 1.01493,0.09743 0.60293,0.302926 0.6041,1.205288 0.002,1.525258 -0.16257,0.0864 -0.32207,0.10309 -0.98474,0.10309 l -0.79075,0 -0.17976,0.25031 c -0.59321,0.82604 -1.99526,1.31316 -3.27888,1.13921 z m 1.53101,-0.30249 c 0.53586,-0.14008 1.02044,-0.40641 1.3598,-0.74735 l 0.31038,-0.31184 -1.32223,-0.0149 c -0.72722,-0.008 -1.9125,-0.008 -2.63393,0 l -1.3117,0.0149 0.19685,0.22991 c 0.67466,0.788 2.16684,1.15186 3.40083,0.82928 z m 3.72684,-1.47367 c 0.27812,-0.26131 0.27913,-0.671064 0.002,-0.94788 l -0.14079,-0.140808 -4.23068,-0.01494 c -4.65146,-0.01643 -4.46548,-0.02921 -4.64571,0.319321 -0.10718,0.207268 -0.10726,0.40863 0,0.61558 0.178,0.34422 -0.0217,0.33054 4.6296,0.3171 l 4.24059,-0.0122 0.14487,-0.13612 z m -2.4372,-1.591377 c -0.53819,-0.495301 -1.34122,-0.767562 -2.26392,-0.767562 -0.9213,0 -1.69502,0.263654 -2.26025,0.770198 l -0.27287,0.244535 2.53312,2.78e-4 2.53312,2.79e-4 -0.2692,-0.24774 z M 251.19397,43.813041 c 1.29075,-0.0668 1.62002,-0.16379 2.05567,-0.60569 0.5086,-0.5159 1.39582,-2.09417 1.43395,-2.55085 0.0292,-0.34915 -0.0625,-0.51773 -0.36415,-0.67007 -0.24155,-0.12196 -0.25349,-0.12237 -3.50721,-0.12098 -1.79566,7.8e-4 -3.82852,-0.026 -4.51747,-0.0596 -1.21798,-0.0593 -3.02119,-0.19359 -3.48737,-0.25973 -0.22277,-0.0316 -0.23252,-0.0264 -0.29036,0.15364 -0.25081,0.78097 -0.2296,2.17063 0.0468,3.06553 l 0.11441,0.37043 0.29117,0.0826 c 1.05398,0.29898 2.95775,0.51064 5.30173,0.58943 1.79054,0.0602 1.85898,0.0603 2.92282,0.005 z m 157.97188,-2.30788 c 0.92844,-0.16121 1.81592,-0.3855 2.56535,-0.64834 0.54637,-0.19161 1.37812,-0.57995 1.46211,-0.68264 0.16339,-0.19977 0.26105,-2.73191 0.12847,-3.33092 -0.0899,-0.40626 -0.32903,-0.76267 -0.71951,-1.07243 -0.52673,-0.41785 -0.511,-0.41589 -0.83168,-0.10354 -0.45001,0.43832 -1.22182,0.79033 -2.15935,0.98483 -0.66227,0.13739 -2.20522,0.35267 -4.00845,0.55928 -2.62436,0.30068 -3.03416,0.37223 -3.22497,0.56305 -0.0745,0.0745 -0.0761,0.11053 -0.0117,0.26388 0.11597,0.27598 1.20837,1.91918 1.53181,2.30415 0.51287,0.61045 1.18497,1.04683 1.91981,1.2465 0.58388,0.15864 2.18213,0.11864 3.34806,-0.0838 z M 246.3226,37.593911 c 1.01953,-0.19617 2.58588,-0.7342 3.25013,-1.1164 0.73732,-0.42424 1.71926,-1.40224 3.59409,-3.57964 0.67169,-0.78009 1.46779,-1.68285 1.76911,-2.00611 0.81801,-0.87761 0.94472,-1.097 0.70702,-1.22421 -0.32848,-0.1758 -2.33742,0.3737 -3.98314,1.0895 -1.38741,0.60346 -3.28242,1.66411 -4.69282,2.62664 l -0.63608,0.43409 -0.43507,0.72066 c -0.53205,0.8813 -0.8424,1.51029 -0.96297,1.95164 -0.0502,0.18372 -0.14478,0.45391 -0.2102,0.60043 l -0.11895,0.26639 0.11291,0.11291 c 0.27815,0.27815 0.65427,0.30721 1.60597,0.1241 z m 1.531,-5.05022 c 2.54805,-1.57479 4.89301,-2.62117 6.73716,-3.00632 0.22925,-0.0479 1.59429,-0.37417 3.03344,-0.7251 8.95463,-2.183564 15.56872,-3.577787 22.79607,-4.80532 l 0.58259,-0.09895 0.052,-0.194855 c 0.0841,-0.315082 0.80464,-2.495503 0.9778,-2.958937 l 0.15912,-0.42582 -0.3698,0.107926 c -1.23327,0.359937 -2.10552,0.492428 -3.24471,0.492857 -1.02598,3.9e-4 -1.59006,-0.09018 -2.28582,-0.367014 l -0.48422,-0.192663 -1.38082,0.310146 c -6.21858,1.396752 -15.25625,3.986166 -18.88996,5.41223 -2.29996,0.902628 -4.1705,2.124405 -6.11315,3.992909 -0.85189,0.81937 -1.98768,2.12911 -2.52693,2.91392 l -0.18026,0.26235 0.16511,-0.10923 c 0.0908,-0.0601 0.52838,-0.33373 0.97237,-0.60813 z m 160.86041,0.12 c 0.12969,-0.0388 0.32727,-0.16644 0.45522,-0.29419 l 0.22606,-0.22573 -0.0728,-0.52698 c -0.04,-0.28984 -0.0968,-1.49152 -0.12613,-2.67039 -0.0538,-2.159301 -0.10094,-2.709581 -0.34248,-3.994686 -0.10321,-0.549154 -0.1375,-0.6431 -0.27783,-0.761178 -0.22343,-0.188005 -0.71366,-0.363075 -1.30312,-0.46537 -0.45717,-0.07934 -0.71674,-0.07857 -2.96376,0.0088 -5.33496,0.207408 -6.59128,0.357249 -7.30003,0.870668 -0.64446,0.46684 -0.48564,0.981927 0.535,1.735157 0.29852,0.220309 1.06575,0.812091 1.70496,1.315072 2.74833,2.162627 4.5277,3.384337 5.73029,3.934407 0.58465,0.26742 2.31572,0.90913 2.78234,1.03142 0.48069,0.12598 0.64911,0.13358 0.95224,0.043 z M 298.33379,24.765665 c 1.49541,-0.07736 1.53613,-0.09451 0.84841,-0.357302 -1.03391,-0.395079 -1.01379,-1.277864 0.0571,-2.505914 0.38556,-0.442138 0.92994,-1.080137 1.57962,-1.851297 0.43625,-0.517809 0.92118,-0.910322 1.40356,-1.136054 0.34147,-0.159791 0.44664,-0.18092 1.00743,-0.202385 l 0.62617,-0.02397 0.12176,-0.368872 c 0.067,-0.202879 0.63159,-1.870032 1.2547,-3.704783 0.62312,-1.834751 1.12288,-3.34597 1.11058,-3.358264 -0.0657,-0.06573 -6.21693,2.956275 -8.35607,4.105233 -3.51596,1.888472 -5.49854,3.156147 -6.61268,4.228202 -0.96273,0.926357 -1.40996,1.605612 -1.57347,2.389802 -0.19206,0.921154 0.27783,1.795427 1.28271,2.386601 0.48935,0.287883 0.82651,0.396695 1.42252,0.459092 0.61653,0.06454 4.11584,0.02846 5.82766,-0.06009 z m 4.92805,-0.103164 c 1.16714,-0.250506 1.76066,-0.605743 1.92248,-1.150669 0.10541,-0.354971 0.0811,-1.001071 -0.0684,-1.813122 -0.075,-0.407755 -0.17484,-0.999914 -0.22181,-1.315909 -0.047,-0.315995 -0.13292,-0.681978 -0.19101,-0.813296 -0.10154,-0.229551 -0.35829,-0.471289 -0.59207,-0.557457 -0.25324,-0.09334 -0.7721,-0.131222 -1.12748,-0.08231 -0.81171,0.11171 -1.47638,0.599425 -2.42183,1.777076 -0.23354,0.290891 -0.64717,0.774597 -0.91919,1.074902 -1.16201,1.282856 -1.31731,2.061147 -0.47424,2.37658 0.17704,0.06624 0.47221,0.211839 0.65593,0.323557 0.4885,0.297047 0.78519,0.346463 1.92072,0.3199 0.70666,-0.01653 1.12331,-0.05478 1.51686,-0.139248 z m 8.22589,-0.672965 c 3.26104,-0.182138 9.09835,-0.505552 12.97179,-0.718699 3.87344,-0.213146 7.29382,-0.403275 7.60084,-0.422508 l 0.55822,-0.03497 0.21464,-0.816665 c 2.09399,-7.967051 4.26829,-15.2034776 5.45968,-18.1706956 0.14402,-0.358687 0.25385,-0.671847 0.24407,-0.695911 -0.0203,-0.04987 -0.044,-0.04885 -2.30263,0.09858 -8.40125,0.548374 -14.24024,1.60878 -19.34633,3.513445 -2.12448,0.792467 -5.23434,2.083798 -7.93298,3.2940756 l -1.05737,0.474208 -1.46305,4.527561 c -1.43489,4.440425 -1.46199,4.532919 -1.4085,4.805926 0.03,0.1531 0.0702,0.403628 0.0893,0.556729 0.0191,0.1531 0.0992,0.604051 0.178,1.002112 0.19693,0.995186 0.20872,1.940884 0.029,2.330299 -0.0686,0.14872 -0.21834,0.356107 -0.33271,0.460859 l -0.20792,0.190458 0.38837,-0.03182 c 0.2136,-0.0175 3.05649,-0.180842 6.31753,-0.362981 z m 23.57482,-1.297577 1.33349,-0.06443 0.18477,-0.573926 c 0.21075,-0.654633 0.70387,-2.517011 1.70542,-6.44086 1.15373,-4.520098 3.15353,-12.4753646 3.15353,-12.5448656 0,-0.07448 -0.9869,-0.08876 -1.97118,-0.02854 l -0.59669,0.03651 -0.12884,0.255775 c -0.48356,0.959994 -1.70364,4.614835 -2.92889,8.7737286 -0.82427,2.797813 -2.94803,10.482927 -2.94803,10.667821 0,0.02128 0.19416,0.02621 0.43147,0.01095 0.2373,-0.01525 1.03153,-0.05673 1.76495,-0.09216 z m 3.9431,-0.211897 c 1.20699,-0.06516 1.2694,-0.07399 1.2942,-0.183191 0.0143,-0.0631 0.19064,-0.953998 0.3918,-1.979772 0.99351,-5.066172 2.23822,-10.6850526 3.06471,-13.8347166 0.33292,-1.268698 0.80107,-2.920073 0.93538,-3.299496 l 0.0841,-0.237487 -1.53931,0.0148 -1.53932,0.01479 -0.57609,2.310426 c -2.14607,8.6066686 -4.12992,16.3145316 -4.38293,17.0289896 -0.0475,0.133986 -0.0863,0.256752 -0.0863,0.272816 0,0.01606 0.24426,0.01393 0.54281,-0.0047 0.29855,-0.01867 1.11347,-0.06476 1.81095,-0.102412 z m 6.1686,-0.382132 c 8.35265,-0.527175 19.0972,-1.247267 22.85485,-1.531716 2.48227,-0.187905 3.45175,-0.284277 3.89587,-0.387275 2.14633,-0.497767 3.69177,-3.338442 4.55895,-8.379794 0.22878,-1.330027 0.3145,-2.1892416 0.34739,-3.4818616 0.0261,-1.025389 0.0156,-1.30452 -0.0639,-1.698023 -0.30963,-1.533365 -1.35537,-2.339951 -3.70546,-2.85806 -2.31762,-0.51095 -5.50682,-0.685005 -14.92034,-0.814298 -4.47174,-0.06142 -12.07738,-0.07313 -12.71094,-0.01958 l -0.42402,0.03584 -0.16704,0.506968 c -0.86233,2.617045 -2.36668,9.0357276 -3.76576,16.0675446 -0.28939,1.454454 -0.53606,2.688305 -0.54814,2.74189 -0.0159,0.07029 0.0127,0.09743 0.10247,0.09743 0.0684,0 2.11417,-0.12558 4.54605,-0.279067 z m -65.83762,-1.393106 c 1.76987,-0.166368 3.83946,-0.844728 6.50776,-2.133085 1.11058,-0.536232 1.96424,-0.990189 5.04437,-2.682477 1.24011,-0.681346 2.91865,-1.59302 3.73008,-2.025944 1.71402,-0.914477 13.35405,-6.7461346 14.66981,-7.3495796 4.22978,-1.93988 8.12035,-3.199697 14.00174,-4.533939 6.34497,-1.43940824 12.01616,-2.10037524 21.35056,-2.48837324 2.27914,-0.09474 9.95534,-0.129331 12.7491,-0.05746 3.98275,0.102462 7.33981,0.266635 10.41083,0.50913 3.95862,0.312582 12.12185,1.20705404 17.30418,1.89607624 0.94367,0.125467 1.72863,0.215261 1.74435,0.199542 0.0157,-0.01572 -0.006,-0.149701 -0.0474,-0.297738 l -0.0759,-0.2691582 -1.11166,-0.149661 c -2.94026,-0.39583804 -8.58847,-1.04594604 -12.21841,-1.40633504 -7.88984,-0.783321 -14.81197,-1.10670596 -23.71666,-1.10798396 -8.08917,-0.0012 -13.18804,0.26066996 -18.90095,0.97057896 -10.00628,1.24342104 -15.66085,2.66756024 -21.3784,5.38429324 -0.42868,0.203691 -4.53734,2.297388 -9.13036,4.65266 -12.49803,6.4089176 -16.20909,8.2688726 -17.11942,8.5801026 -1.57389,0.538098 -4.58722,1.374901 -6.33702,1.759792 -0.53154,0.116921 -0.56468,0.131794 -0.43962,0.197317 0.21844,0.114457 0.99467,0.299007 1.46743,0.34889 0.63475,0.06697 0.81448,0.06738 1.49562,0.0034 z m 26.88006,-5.713554 c 0.7559,-2.347423 1.36356,-4.278845 1.35036,-4.292048 -0.0132,-0.0132 -0.21977,0.06476 -0.45903,0.173263 l -0.43502,0.197268 -1.29222,3.802498 c -0.71073,2.091374 -1.29343,3.818896 -1.29489,3.838938 -0.001,0.02004 0.13182,0.112333 0.29618,0.20509 0.16436,0.09276 0.31389,0.207886 0.33229,0.255842 0.0184,0.04796 0.0547,0.08719 0.0807,0.08719 0.026,0 0.66572,-1.920619 1.42162,-4.268044 z m 97.96535,3.558215 c -0.002,-0.06483 -1.45119,-2.073487 -2.22583,-3.084478 -2.24044,-2.92404 -4.00986,-4.865252 -7.90856,-8.6764236 -2.43264,-2.378026 -2.93958,-2.933964 -3.11407,-3.41503 l -0.0574,-0.158164 -0.29173,0.163647 c -0.29908,0.167769 -0.73118,0.626321 -1.42113,1.508133 l -0.36358,0.464684 0.10275,0.175554 c 0.80983,1.383681 4.55595,5.8243316 7.0687,8.3792526 1.71898,1.747823 2.85909,2.7114 3.75808,3.176175 0.50876,0.263025 1.52843,0.631864 3.11769,1.127739 1.22807,0.383179 1.33694,0.410815 1.33506,0.338911 z M 389.21219,4.4642394 c 0.69167,-0.867379 0.9926,-1.161691 1.3597,-1.329755 0.32571,-0.149114 0.32937,-0.156141 0.25287,-0.485829 -0.0971,-0.418308 -0.41984,-0.620404 -1.21172,-0.758672 -0.66219,-0.115624 -2.60003,-0.3860212 -2.62041,-0.3656412 -0.0447,0.04472 0.3987,1.2614632 0.66054,1.8125212 0.31773,0.668678 0.94174,1.781533 0.99896,1.781533 0.0211,0 0.27316,-0.29437 0.56006,-0.654157 z"
         style="fill:#000000;stroke:#000000;stroke-width:0.28222221;stroke-miterlimit:4;stroke-dasharray:none;stroke-opacity:1" />
      <path
         sodipodi:open="true"
         d="m 376.6934,28.793779 a 8.5696821,4.2848396 0 0 1 -8.228,4.281433 8.5696821,4.2848396 0 0 1 -8.88412,-3.940021 8.5696821,4.2848396 0 0 1 7.51956,-4.595619 8.5696821,4.2848396 0 0 1 9.48375,3.573555"
         sodipodi:end="6.1236582"
         sodipodi:start="0"
         sodipodi:ry="4.2848396"
         sodipodi:rx="8.5696821"
         sodipodi:cy="28.793779"
         sodipodi:cx="368.12372"
         sodipodi:type="arc"
         id="path4177"
         style="fill:#ffffff;fill-opacity:1;stroke:none;stroke-width:0.14111111;stroke-miterlimit:4;stroke-dasharray:none;stroke-opacity:1" />
    </g>
    <flowRoot
       xml:space="preserve"
       id="flowRoot6038"
       style="font-style:normal;font-variant:normal;font-weight:normal;font-stretch:normal;font-size:14.11114693px;line-height:125%;font-family:Calibri;-inkscape-font-specification:'Calibri, Normal';text-align:center;letter-spacing:0px;word-spacing:0px;writing-mode:lr-tb;text-anchor:middle;fill:#6dca24;fill-opacity:1;stroke:none;stroke-width:2.77086616;stroke-linecap:butt;stroke-linejoin:miter;stroke-miterlimit:4;stroke-dasharray:none;stroke-opacity:1"
       transform="matrix(0.30836872,0,0,0.31674603,-11.432239,215.10425)"><flowRegion
         id="flowRegion6040"><rect
           id="rect6042"
           width="161.70662"
           height="48.487316"
           x="39.682995"
           y="54.33144"
           style="font-style:normal;font-variant:normal;font-weight:normal;font-stretch:normal;font-size:14.11114693px;line-height:125%;font-family:Calibri;-inkscape-font-specification:'Calibri, Normal';text-align:center;writing-mode:lr-tb;text-anchor:middle;fill:#6dca24;fill-opacity:1;stroke:none;stroke-width:2.77086616;stroke-miterlimit:4;stroke-dasharray:none" /></flowRegion><flowPara
         id="flowPara4796">Connected and Charging</flowPara></flowRoot>    <g
       id="g4173"
       transform="matrix(0.24585333,0,0,0.24585333,0.27765176,219.14412)">
      <rect
         y="126.94976"
         x="24.23477"
         height="101.02683"
         width="159.86702"
         id="rect3653"
         style="fill:none;fill-rule:evenodd;stroke:#5097db;stroke-width:1.51497757;stroke-linecap:butt;stroke-linejoin:miter;stroke-miterlimit:4;stroke-dasharray:none;stroke-opacity:1" />
      <path
         inkscape:connector-curvature="0"
         id="path4158"
         d="m 42.092939,126.19227 0,102.542"
         style="fill:none;fill-rule:evenodd;stroke:#5097db;stroke-width:0.30140135px;stroke-linecap:butt;stroke-linejoin:miter;stroke-opacity:1" />
      <path
         inkscape:connector-curvature="0"
         id="path4160"
         d="m 24.197531,143.83268 160.020569,0"
         style="fill:none;fill-rule:evenodd;stroke:#5097db;stroke-width:0.28222221px;stroke-linecap:butt;stroke-linejoin:miter;stroke-opacity:1" />
      <path
         style="fill:none;fill-rule:evenodd;stroke:#5097db;stroke-width:0.30140135px;stroke-linecap:butt;stroke-linejoin:miter;stroke-opacity:1"
         d="m 148.58906,126.19227 0,102.542"
         id="path4162"
         inkscape:connector-curvature="0" />
      <path
         inkscape:connector-curvature="0"
         id="path4164"
         d="m 130.83972,126.19227 0,102.542"
         style="fill:none;fill-rule:evenodd;stroke:#5097db;stroke-width:0.30140135px;stroke-linecap:butt;stroke-linejoin:miter;stroke-opacity:1" />
      <path
         style="fill:none;fill-rule:evenodd;stroke:#5097db;stroke-width:0.30140135px;stroke-linecap:butt;stroke-linejoin:miter;stroke-opacity:1"
         d="m 166.33842,126.19227 0,102.542"
         id="path4166"
         inkscape:connector-curvature="0" />
      <path
         inkscape:connector-curvature="0"
         id="path4168"
         d="m 95.341005,126.19227 0,102.542"
         style="fill:none;fill-rule:evenodd;stroke:#5097db;stroke-width:0.30140135px;stroke-linecap:butt;stroke-linejoin:miter;stroke-opacity:1" />
      <path
         style="fill:none;fill-rule:evenodd;stroke:#5097db;stroke-width:0.30140135px;stroke-linecap:butt;stroke-linejoin:miter;stroke-opacity:1"
         d="m 59.842293,126.19227 0,102.542"
         id="path4170"
         inkscape:connector-curvature="0" />
      <path
         inkscape:connector-curvature="0"
         id="path4172"
         d="m 77.59165,126.19227 0,102.542"
         style="fill:none;fill-rule:evenodd;stroke:#5097db;stroke-width:0.30140135px;stroke-linecap:butt;stroke-linejoin:miter;stroke-opacity:1" />
      <path
         style="fill:none;fill-rule:evenodd;stroke:#5097db;stroke-width:0.30140135px;stroke-linecap:butt;stroke-linejoin:miter;stroke-opacity:1"
         d="m 113.09036,126.19227 0,102.542"
         id="path4174"
         inkscape:connector-curvature="0" />
      <path
         style="fill:none;fill-rule:evenodd;stroke:#5097db;stroke-width:0.28222221px;stroke-linecap:butt;stroke-linejoin:miter;stroke-opacity:1"
         d="m 24.197531,160.6125 160.020569,0"
         id="path4161"
         inkscape:connector-curvature="0" />
      <path
         inkscape:connector-curvature="0"
         id="path4163"
         d="m 24.197531,177.39234 160.020569,0"
         style="fill:none;fill-rule:evenodd;stroke:#5097db;stroke-width:0.28222221px;stroke-linecap:butt;stroke-linejoin:miter;stroke-opacity:1" />
      <path
         style="fill:none;fill-rule:evenodd;stroke:#5097db;stroke-width:0.28222221px;stroke-linecap:butt;stroke-linejoin:miter;stroke-opacity:1"
         d="m 24.197531,194.17218 160.020569,0"
         id="path4165"
         inkscape:connector-curvature="0" />
      <path
         inkscape:connector-curvature="0"
         id="path4167"
         d="m 24.19753,210.95202 160.02057,0"
         style="fill:none;fill-rule:evenodd;stroke:#5097db;stroke-width:0.28222221px;stroke-linecap:butt;stroke-linejoin:miter;stroke-opacity:1" />
    </g>
    <g
       id="g4198"
       transform="matrix(0.26216904,0,0,0.26216904,41.856723,177.58314)">
      <rect
         ry="5.31392"
         y="163.33415"
         x="-88.0569"
         height="26.191282"
         width="60.962471"
         id="rect4190"
         style="fill:#6dca24;fill-opacity:1;stroke:none;stroke-width:0.1;stroke-miterlimit:4;stroke-dasharray:none;stroke-opacity:1" />
      <rect
         ry="1.5351324"
         y="170.55933"
         x="-29.07592"
         height="11.74092"
         width="6.8567057"
         id="rect4192"
         style="fill:#6dca24;fill-opacity:1;stroke:none;stroke-width:0.1;stroke-miterlimit:4;stroke-dasharray:none;stroke-opacity:1" />
      <rect
         ry="2.8340831"
         y="166.9861"
         x="-83.95993"
         height="19.602457"
         width="52.784935"
         id="rect4194"
         style="fill:#ffffff;fill-opacity:1;stroke:none;stroke-width:0.35433072;stroke-miterlimit:4;stroke-dasharray:none;stroke-opacity:1" />
      <rect
         ry="2.2646079"
         y="169.08534"
         x="-81.243927"
         height="15.613811"
         width="34.245247"
         id="rect4196"
         style="fill:#6dca24;fill-opacity:1;stroke:none;stroke-width:0.35433072;stroke-miterlimit:4;stroke-dasharray:none;stroke-opacity:1" />
    </g>
    <flowRoot
       xml:space="preserve"
       id="flowRoot10588"
       style="font-style:normal;font-weight:normal;font-size:3.09346628px;line-height:125%;font-family:sans-serif;text-align:center;letter-spacing:0px;word-spacing:0px;text-anchor:middle;fill:#000000;fill-opacity:1;stroke:none;stroke-width:1px;stroke-linecap:butt;stroke-linejoin:miter;stroke-opacity:1"
       transform="matrix(0.89718478,0,0,0.89718478,-5.7558158,37.676487)"><flowRegion
         id="flowRegion10590"><rect
           id="rect10592"
           width="8.0433416"
           height="4.3310251"
           x="29.741211"
           y="264.46936"
           style="text-align:center;text-anchor:middle" /></flowRegion><flowPara
         id="flowPara10594">time</flowPara></flowRoot>    <flowRoot
       style="font-style:normal;font-weight:normal;font-size:11.28888893px;line-height:125%;font-family:sans-serif;text-align:center;letter-spacing:0px;word-spacing:0px;text-anchor:middle;fill:#000000;fill-opacity:1;stroke:none;stroke-width:1px;stroke-linecap:butt;stroke-linejoin:miter;stroke-opacity:1"
       id="flowRoot10608"
       xml:space="preserve"
       transform="matrix(0,-1,1,0,-38.96684,277.18849)"><flowRegion
         id="flowRegion10610"><rect
           style="text-align:center;text-anchor:middle"
           y="227.00606"
           x="83.992737"
           height="15.805074"
           width="29.352312"
           id="rect10612" /></flowRegion><flowPara
         id="flowPara10614">timeCost</flowPara></flowRoot>    <flowRoot
       style="font-style:normal;font-weight:normal;font-size:11.28888893px;line-height:125%;font-family:sans-serif;text-align:center;letter-spacing:0px;word-spacing:0px;text-anchor:middle;fill:#bf6f20;fill-opacity:1;stroke:none;stroke-width:0.28222221;stroke-linecap:butt;stroke-linejoin:miter;stroke-miterlimit:4;stroke-dasharray:none;stroke-opacity:1"
       id="flowRoot10616"
       xml:space="preserve"
       transform="matrix(0,-0.24585333,0.24585333,0,-10.208369,294.04951)"><flowRegion
         id="flowRegion10618"><rect
           style="text-align:center;text-anchor:middle;fill:#bf6f20;fill-opacity:1;stroke:none;stroke-width:0.28222221;stroke-miterlimit:4;stroke-dasharray:none;stroke-opacity:1"
           y="227.00606"
           x="83.992737"
           height="16.256641"
           width="80.831734"
           id="rect10620" /></flowRegion><flowPara
         id="flowPara10622"
         style="fill:#bf6f20;fill-opacity:1;stroke:none;stroke-width:0.28222221;stroke-miterlimit:4;stroke-dasharray:none;stroke-opacity:1">Energy Tariff</flowPara></flowRoot>    <flowRoot
       style="font-style:normal;font-weight:normal;font-size:11.28888893px;line-height:125%;font-family:sans-serif;text-align:center;letter-spacing:0px;word-spacing:0px;text-anchor:middle;fill:#000000;fill-opacity:1;stroke:none;stroke-width:1px;stroke-linecap:butt;stroke-linejoin:miter;stroke-opacity:1"
       id="flowRoot10624"
       xml:space="preserve"
       transform="matrix(0,-0.24585333,0.24585333,0,-54.016331,293.55326)"><flowRegion
         id="flowRegion10626"><rect
           style="text-align:center;text-anchor:middle"
           y="227.00606"
           x="83.992737"
           height="15.80506"
           width="75.412849"
           id="rect10628" /></flowRegion><flowPara
         id="flowPara10630"
         style="fill:#969696;fill-opacity:1">Charge Rate</flowPara></flowRoot>    <flowRoot
       xml:space="preserve"
       id="flowRoot10632"
       style="font-style:normal;font-weight:normal;font-size:25.39999962px;line-height:125%;font-family:sans-serif;text-align:center;letter-spacing:0px;word-spacing:0px;text-anchor:middle;fill:#5097db;fill-opacity:1;stroke:#5097db;stroke-width:0.33458424;stroke-linecap:butt;stroke-linejoin:miter;stroke-miterlimit:4;stroke-dasharray:none;stroke-opacity:1"
       transform="matrix(0.16882224,0,0,0.15421248,-7.6952431,263.72234)"><flowRegion
         id="flowRegion10634"><rect
           id="rect10636"
           width="258.64587"
           height="63.712399"
           x="72.251816"
           y="92.437042"
           style="font-size:25.39999962px;text-align:center;text-anchor:middle;fill:#5097db;fill-opacity:1;stroke:#5097db;stroke-width:0.33458424;stroke-miterlimit:4;stroke-dasharray:none;stroke-opacity:1" /></flowRegion><flowPara
         id="flowPara10638">Cost of this Charge:</flowPara><flowPara
         id="flowPara11281">$4.08</flowPara></flowRoot>    <path
       style="fill:none;fill-rule:evenodd;stroke:#bf6f20;stroke-width:0.28199998;stroke-linecap:round;stroke-linejoin:miter;stroke-miterlimit:4;stroke-dasharray:none;stroke-opacity:1"
       d="m 14.379,252.363 4.314,0 3.211,6.321 7.774,0 2.587,-2.156 8.801,0"
       id="path4293"
       inkscape:connector-curvature="0"
       sodipodi:nodetypes="cccccc" />
    <path
       style="fill:none;fill-rule:evenodd;stroke:#969696;stroke-width:0.28199998;stroke-linecap:round;stroke-linejoin:miter;stroke-miterlimit:4;stroke-dasharray:none;stroke-opacity:1"
       d="m 41.066,274.93492 -3.319901,-9.53992 -5.481099,0 -2.587,-3.535 c -2.59112,-0.004 -5.182894,-0.007 -7.774,0 l -3.211,5.566 -4.314,0 0,7.59858"
       id="path4289"
       inkscape:connector-curvature="0"
       sodipodi:nodetypes="cccccccc" />
  </g>
</svg>
