<?xml version="1.0" encoding="UTF-8" standalone="no"?>
<!-- Created with Inkscape (http://www.inkscape.org/) -->

<svg
   xmlns:dc="http://purl.org/dc/elements/1.1/"
   xmlns:cc="http://creativecommons.org/ns#"
   xmlns:rdf="http://www.w3.org/1999/02/22-rdf-syntax-ns#"
   xmlns:svg="http://www.w3.org/2000/svg"
   xmlns="http://www.w3.org/2000/svg"
   xmlns:sodipodi="http://sodipodi.sourceforge.net/DTD/sodipodi-0.dtd"
   xmlns:inkscape="http://www.inkscape.org/namespaces/inkscape"
   width="51.599998mm"
   height="90.25mm"
   viewBox="0 0 0 1321.6535"
   id="svg2"
   version="1.1"
   inkscape:version="0.91 r13725"
   sodipodi:docname="OpeningScreen.svg"
   inkscape:export-filename="C:\Users\satyajit\OneDrive\GreenDot Inc\charging_automobile_battery\business docs\ChargingApp\OpeningScreen.png"
   inkscape:export-xdpi="600"
   inkscape:export-ydpi="600">
  <defs
     id="defs4">
    <clipPath
       id="clipPath3350"
       clipPathUnits="userSpaceOnUse">
      <path
         inkscape:connector-curvature="0"
         id="path3352"
         d="m 0,1008 1008,0 L 1008,0 0,0 0,1008 Z" />
    </clipPath>
  </defs>
  <sodipodi:namedview
     id="base"
     pagecolor="#ffffff"
     bordercolor="#666666"
     borderopacity="1.0"
     inkscape:pageopacity="0.0"
     inkscape:pageshadow="2"
     inkscape:zoom="2.6486673"
     inkscape:cx="28.366744"
     inkscape:cy="159.89173"
     inkscape:document-units="px"
     inkscape:current-layer="layer1"
     showgrid="false"
     inkscape:window-width="1920"
     inkscape:window-height="1019"
     inkscape:window-x="-9"
     inkscape:window-y="-9"
     inkscape:window-maximized="1" />
  <metadata
     id="metadata7">
    <rdf:RDF>
      <cc:Work
         rdf:about="">
        <dc:format>image/svg+xml</dc:format>
        <dc:type
           rdf:resource="http://purl.org/dc/dcmitype/StillImage" />
        <dc:title />
      </cc:Work>
    </rdf:RDF>
  </metadata>
  <g
     inkscape:label="Layer 1"
     inkscape:groupmode="layer"
     id="layer1"
     transform="translate(0,-732.57874)">
    <g
       transform="matrix(0.16807834,0,0,-0.16807834,5.4934037,959.74279)"
       inkscape:label="logoblock"
       id="g3344">
      <g
         id="g3346">
        <g
           clip-path="url(#clipPath3350)"
           id="g3348">
          <g
             transform="translate(156.9404,204.4736)"
             id="g3354">
            <path
               inkscape:connector-curvature="0"
               id="path3356"
               style="fill:#71c82d;fill-opacity:1;fill-rule:nonzero;stroke:none"
               d="m 0,0 c 0,-16.502 -4.835,-29.835 -14.5,-40.001 -9.668,-10.164 -22.488,-15.243 -38.459,-15.243 -14.595,0 -26.783,4.53 -36.563,13.601 -11.081,10.283 -16.622,23.693 -16.622,40.242 0,16.261 5.617,29.63 16.85,40.1 9.858,9.161 22.352,13.738 37.481,13.738 18.264,0 33.241,-8.177 44.937,-24.536 l -12.842,-7.85 c -8.634,11.306 -19.714,16.966 -33.241,16.966 -10.545,0 -19.371,-3.183 -26.477,-9.534 -8.252,-7.386 -12.38,-17.016 -12.38,-28.884 0,-11.41 3.554,-20.662 10.661,-27.764 7.105,-7.106 16.505,-10.653 28.196,-10.653 18.344,0 30.261,8.737 35.763,26.217 l -38.628,0 0,15.141 L 0,1.54 0,0 Z" />
          </g>
          <g
             transform="translate(240.8428,206.0137)"
             id="g3358">
            <path
               inkscape:connector-curvature="0"
               id="path3360"
               style="fill:#71c82d;fill-opacity:1;fill-rule:nonzero;stroke:none"
               d="m 0,0 c 10.621,0 15.934,5.236 15.934,15.701 0,11.222 -5.732,16.827 -17.196,16.827 l -48.37,0 L -49.632,0 0,0 Z m 30.722,-53.836 -16.002,0 -22.459,38.695 -41.893,0 0,-38.695 -13.755,0 0,101.512 65.453,0 c 8.709,0 15.547,-2.876 20.516,-8.626 4.967,-5.75 7.449,-13.529 7.449,-23.342 0,-8.601 -2.026,-15.52 -6.073,-20.756 -3.746,-4.856 -8.903,-7.946 -15.475,-9.251 l 22.239,-39.537 z" />
          </g>
          <g
             transform="translate(377.0176,152.1777)"
             id="g3362">
            <path
               inkscape:connector-curvature="0"
               id="path3364"
               style="fill:#71c82d;fill-opacity:1;fill-rule:nonzero;stroke:none"
               d="m 0,0 -86.887,0 0,101.512 83.679,0 0,-15.148 -69.924,0 0,-26.079 48.602,0 0,-15.14 -48.602,0 0,-30.006 L 0,15.139 0,0 Z" />
          </g>
          <g
             transform="translate(481.7803,152.1777)"
             id="g3366">
            <path
               inkscape:connector-curvature="0"
               id="path3368"
               style="fill:#71c82d;fill-opacity:1;fill-rule:nonzero;stroke:none"
               d="m 0,0 -86.884,0 0,101.512 83.675,0 0,-15.148 -69.92,0 0,-26.079 48.598,0 0,-15.14 -48.598,0 0,-30.006 L 0,15.139 0,0 Z" />
          </g>
          <g
             transform="translate(593.8877,152.1777)"
             id="g3370">
            <path
               inkscape:connector-curvature="0"
               id="path3372"
               style="fill:#71c82d;fill-opacity:1;fill-rule:nonzero;stroke:none"
               d="m 0,0 -17.119,0 -63.351,83.243 0,-83.243 -13.756,0 0,101.512 17.081,0 63.383,-83.29 0,83.29 13.762,0 L 0,0 Z" />
          </g>
          <g
             transform="translate(706.5576,167.3164)"
             id="g3374">
            <path
               inkscape:connector-curvature="0"
               id="path3376"
               style="fill:#71c82d;fill-opacity:1;fill-rule:nonzero;stroke:none"
               d="m 0,0 c 8.253,0 15.034,3.259 20.347,9.779 5.31,6.526 7.965,14.9 7.965,25.13 0,10.889 -2.846,19.659 -8.543,26.322 -5.692,6.665 -13.158,9.995 -22.406,9.995 l -39.888,0 L -42.525,0 0,0 Z m -3.783,86.373 c 14.444,0 25.883,-4.699 34.335,-14.098 8.437,-9.388 12.661,-21.984 12.661,-37.783 0,-14.488 -4.47,-26.545 -13.408,-36.175 -8.332,-8.971 -18.648,-13.456 -30.951,-13.456 l -55.136,0 0,101.512 52.499,0 z" />
          </g>
          <g
             transform="translate(857.4014,203.0723)"
             id="g3378">
            <path
               inkscape:connector-curvature="0"
               id="path3380"
               style="fill:#71c82d;fill-opacity:1;fill-rule:nonzero;stroke:none"
               d="m 0,0 c 0,11.868 -4.124,21.498 -12.382,28.885 -7.108,6.35 -15.932,9.533 -26.474,9.533 -11.542,0 -20.938,-3.625 -28.198,-10.869 C -74.315,20.306 -77.947,11.124 -77.947,0 c 0,-11.501 3.557,-20.779 10.664,-27.833 7.105,-7.058 16.582,-10.584 28.427,-10.584 11.764,0 21.182,3.548 28.254,10.653 C -3.533,-20.662 0,-11.409 0,0 m 14.328,0 c 0,-16.638 -5.582,-30.104 -16.738,-40.379 -9.779,-8.978 -21.927,-13.464 -36.446,-13.464 -14.676,0 -26.897,4.53 -36.678,13.602 -11.167,10.282 -16.74,23.692 -16.74,40.241 0,16.262 5.657,29.63 16.969,40.101 9.929,9.161 22.083,13.737 36.449,13.737 14.437,0 26.55,-4.576 36.336,-13.737 C 8.712,29.63 14.328,16.262 14.328,0" />
          </g>
          <g
             transform="translate(973.7422,238.542)"
             id="g3382">
            <path
               inkscape:connector-curvature="0"
               id="path3384"
               style="fill:#71c82d;fill-opacity:1;fill-rule:nonzero;stroke:none"
               d="m 0,0 -39.663,0 0,-86.364 -13.754,0 0,86.364 -39.664,0 0,15.147 L 0,15.147 0,0 Z" />
          </g>
          <g
             transform="translate(303.6255,488.2002)"
             id="g3386">
            <path
               inkscape:connector-curvature="0"
               id="path3388"
               style="fill:#4f95d6;fill-opacity:1;fill-rule:nonzero;stroke:none"
               d="M 0,0 C 0.249,-0.607 0.469,-0.967 0.469,-0.967 79.672,-52.824 182.615,-36.324 271.22,-11.879 324.454,3.33 374.056,15.237 423.724,16.02 c 0,0 1.935,5.178 4.211,12.691 1.992,6.145 3.927,14.339 3.927,14.339 C 381.595,48.389 325.659,32.7 281.649,17.674 201.694,-8.398 118.266,-48.382 33.093,-15.354 22.404,-11.077 10.816,-5.683 -0.415,1.05 -0.415,1.05 -0.25,0.607 0,0" />
          </g>
          <g
             transform="translate(587.2227,800.1782)"
             id="g3390">
            <path
               inkscape:connector-curvature="0"
               id="path3392"
               style="fill:#71c82d;fill-opacity:1;fill-rule:nonzero;stroke:none"
               d="m 0,0 c -0.825,0.289 -1.55,0.503 -1.55,0.503 -17.77,-67.696 -3.839,-144.417 14.881,-212.279 20.534,-71.864 34.935,-135.331 24.298,-204.488 0,0 7.089,3.543 13.249,7.847 6.16,4.303 12.32,8.777 12.32,8.777 16.262,56.311 -2.54,125.385 -20.312,177.435 -23.282,71.385 -57.587,145.894 -41.179,221.587 0,0 -0.882,0.33 -1.707,0.618" />
          </g>
          <g
             transform="translate(286.0664,545.8638)"
             id="g3394">
            <path
               inkscape:connector-curvature="0"
               id="path3396"
               style="fill:#4f95d6;fill-opacity:1;fill-rule:nonzero;stroke:none"
               d="m 0,0 0.087,-0.552 c 80.072,-57.864 186.851,-41.046 278.199,-15.85 61.887,17.684 117.142,30.781 175.518,27.282 0,0 0.627,7.228 1.137,12.463 0.513,5.236 0.342,12.634 0.342,12.634 C 401.105,47.328 337.563,29.832 288.715,13.149 208.762,-12.923 125.327,-52.898 40.157,-19.874 27.292,-14.729 13,-8.074 -0.119,0.667 L 0,0 Z" />
          </g>
          <g
             transform="translate(540.9971,810.9365)"
             id="g3398">
            <path
               inkscape:connector-curvature="0"
               id="path3400"
               style="fill:#71c82d;fill-opacity:1;fill-rule:nonzero;stroke:none"
               d="m 0,0 c -0.659,0.097 -1.253,0.158 -1.253,0.158 -28.029,-72.825 -13.158,-159.276 7.655,-234.724 21.565,-75.48 36.308,-141.408 22.446,-214.712 0,0 6.402,1.414 9.947,2.678 3.543,1.267 8.945,2.955 8.945,2.955 29.254,59.41 8.285,139.867 -11.787,198.645 -25.652,78.668 -64.609,161.049 -34.421,244.79 0,0 -0.876,0.114 -1.532,0.21" />
          </g>
          <g
             transform="translate(283.1621,592.3462)"
             id="g3402">
            <path
               inkscape:connector-curvature="0"
               id="path3404"
               style="fill:#4f95d6;fill-opacity:1;fill-rule:nonzero;stroke:none"
               d="m 0,0 c 78.974,-50.491 181.486,-34.167 269.447,-9.899 65.818,18.803 124.922,32.262 187.431,26.253 0,0 -0.654,5.636 -1.537,11.552 -0.881,5.916 -2.386,12.902 -2.446,12.917 C 397.378,55.062 330.67,36.995 279.875,19.652 199.92,-6.42 116.488,-46.403 31.318,-13.379 21.43,-9.421 10.539,-4.464 0.072,1.587" />
          </g>
          <g
             transform="translate(492.6475,811.8867)"
             id="g3406">
            <path
               inkscape:connector-curvature="0"
               id="path3408"
               style="fill:#71c82d;fill-opacity:1;fill-rule:nonzero;stroke:none"
               d="m 0,0 c -0.406,-0.039 -1.142,-0.097 -1.142,-0.097 -34.5,-75.149 -19.12,-166.715 2.809,-246.208 21.229,-74.295 35.842,-139.335 23.074,-211.271 0,0 5.072,0.082 8.337,0.317 3.267,0.237 9.456,0.769 9.456,0.769 30.365,59.555 8.922,140.479 -11.319,199.758 -26.073,79.954 -66.053,163.388 -33.021,248.565 1.04,2.599 2.135,5.554 3.315,8.264 C 1.509,0.097 0.406,0.039 0,0" />
          </g>
          <g
             transform="translate(289.0483,636.0283)"
             id="g3410">
            <path
               inkscape:connector-curvature="0"
               id="path3412"
               style="fill:#4f95d6;fill-opacity:1;fill-rule:nonzero;stroke:none"
               d="m 0,0 c 76.406,-38.781 170.98,-23.063 252.924,-0.46 65.232,18.636 123.715,32.178 185.605,26.566 0,0 -3.471,8.764 -5.405,13.373 -1.936,4.61 -6.088,12.918 -6.088,12.918 C 373.542,62.475 311.28,45.456 263.356,29.09 183.396,3.018 99.969,-36.962 14.795,-3.937 10.212,-2.103 5.415,-0.055 0.544,2.217" />
          </g>
          <g
             transform="translate(438.7139,800.3936)"
             id="g3414">
            <path
               inkscape:connector-curvature="0"
               id="path3416"
               style="fill:#71c82d;fill-opacity:1;fill-rule:nonzero;stroke:none"
               d="m 0,0 c -34.952,-75.292 -19.477,-167.021 2.525,-246.779 19.586,-68.55 33.532,-129.401 25.547,-194.878 0,0 6.433,-1.144 9.565,-1.65 3.133,-0.504 11.148,-1.515 11.148,-1.515 22.001,58.042 2.16,132.346 -16.711,187.615 -26.073,79.951 -66.049,163.385 -33.024,248.562 1.25,3.126 2.6,6.351 4.053,9.631" />
          </g>
          <g
             transform="translate(304.6157,680.7627)"
             id="g3418">
            <path
               inkscape:connector-curvature="0"
               id="path3420"
               style="fill:#4f95d6;fill-opacity:1;fill-rule:nonzero;stroke:none"
               d="m 0,0 c 80.93,-24.972 160.204,12.458 236.325,37.278 39.27,13.408 89.056,27.022 134.817,26.076 0,0 7.873,-8.345 11.181,-12.279 C 389.049,43.072 394.624,35.29 394.624,35.29 338.876,37.348 285.228,24.68 225.899,7.729 153.09,-12.355 69.968,-26.901 -1.179,-2.716" />
          </g>
          <g
             transform="translate(378.7461,769.8638)"
             id="g3422">
            <path
               inkscape:connector-curvature="0"
               id="path3424"
               style="fill:#71c82d;fill-opacity:1;fill-rule:nonzero;stroke:none"
               d="m 0,0 c -0.857,-0.619 -1.657,-1.179 -1.657,-1.179 -23.425,-70.784 -8.931,-153.574 11.002,-225.831 16.832,-58.92 29.508,-112.011 27.669,-167.333 0,0 6.95,-3.168 11.424,-4.956 4.475,-1.79 13.188,-4.851 13.188,-4.851 C 72.929,-350 55.564,-286.258 38.897,-237.445 13.857,-160.657 -24.045,-80.063 2.243,1.6 2.243,1.6 0.857,0.618 0,0" />
          </g>
          <g
             transform="translate(70.5903,93.7813)"
             id="g3426">
            <path
               inkscape:connector-curvature="0"
               id="path3428"
               style="fill:#110f0d;fill-opacity:1;fill-rule:nonzero;stroke:none"
               d="m 0,0 6.563,-1.84 c -1.006,-3.231 -2.68,-5.632 -5.02,-7.201 -2.339,-1.568 -5.309,-2.354 -8.906,-2.354 -4.452,0 -8.111,1.344 -10.976,4.031 -2.866,2.686 -4.299,6.36 -4.299,11.02 0,4.929 1.441,8.757 4.322,11.486 2.88,2.728 6.67,4.091 11.364,4.091 4.101,0 7.432,-1.07 9.993,-3.213 1.524,-1.264 2.668,-3.083 3.43,-5.453 l -6.7,-1.416 c -0.396,1.537 -1.223,2.747 -2.481,3.637 -1.257,0.89 -2.786,1.334 -4.584,1.334 -2.485,0 -4.502,-0.79 -6.048,-2.364 -1.548,-1.575 -2.322,-4.128 -2.322,-7.656 0,-3.746 0.763,-6.412 2.287,-8 1.524,-1.59 3.506,-2.385 5.945,-2.385 1.799,0 3.346,0.504 4.642,1.514 1.296,1.01 2.226,2.601 2.79,4.769" />
          </g>
          <g
             transform="translate(89.7344,97.7207)"
             id="g3430">
            <path
               inkscape:connector-curvature="0"
               id="path3432"
               style="fill:#110f0d;fill-opacity:1;fill-rule:nonzero;stroke:none"
               d="m 0,0 c 0,-3.354 0.877,-5.896 2.63,-7.625 1.753,-1.733 3.979,-2.598 6.677,-2.598 2.698,0 4.912,0.859 6.644,2.577 1.729,1.717 2.595,4.292 2.595,7.727 0,3.395 -0.843,5.926 -2.527,7.596 -1.685,1.67 -3.922,2.506 -6.712,2.506 C 6.517,10.183 4.27,9.337 2.562,7.646 0.854,5.957 0,3.408 0,0 m -6.974,-0.202 c 0,3.016 0.51,5.55 1.532,7.596 0.762,1.509 1.803,2.862 3.122,4.06 1.318,1.198 2.762,2.088 4.333,2.667 2.089,0.782 4.496,1.173 7.226,1.173 4.939,0 8.891,-1.355 11.856,-4.062 2.965,-2.707 4.448,-6.472 4.448,-11.293 0,-4.781 -1.471,-8.522 -4.413,-11.221 -2.943,-2.701 -6.876,-4.052 -11.8,-4.052 -4.984,0 -8.949,1.344 -11.891,4.03 -2.942,2.687 -4.413,6.388 -4.413,11.102" />
          </g>
          <g
             transform="translate(121.7988,82.8906)"
             id="g3434">
            <path
               inkscape:connector-curvature="0"
               id="path3436"
               style="fill:#110f0d;fill-opacity:1;fill-rule:nonzero;stroke:none"
               d="m 0,0 0,29.619 6.586,0 13.721,-19.779 0,19.779 6.288,0 L 26.595,0 19.803,0 6.289,19.315 6.289,0 0,0 Z" />
          </g>
          <g
             transform="translate(163.4673,107.499)"
             id="g3438">
            <path
               inkscape:connector-curvature="0"
               id="path3440"
               style="fill:#110f0d;fill-opacity:1;fill-rule:nonzero;stroke:none"
               d="m 0,0 0,-19.617 5.054,0 c 1.89,0 3.254,0.094 4.092,0.283 1.098,0.243 2.009,0.653 2.733,1.232 0.725,0.581 1.314,1.532 1.772,2.86 0.458,1.325 0.686,3.133 0.686,5.424 0,2.289 -0.228,4.047 -0.686,5.272 -0.458,1.226 -1.098,2.182 -1.92,2.869 -0.824,0.688 -1.868,1.151 -3.134,1.393 C 7.653,-0.095 5.8,0 3.042,0 L 0,0 Z m -6.769,5.011 12.371,0 c 2.79,0 4.917,-0.191 6.38,-0.566 1.967,-0.512 3.651,-1.422 5.054,-2.728 1.402,-1.307 2.469,-2.906 3.201,-4.799 0.732,-1.892 1.097,-4.226 1.097,-6.999 0,-2.438 -0.343,-4.539 -1.028,-6.303 -0.838,-2.156 -2.035,-3.898 -3.59,-5.233 -1.175,-1.01 -2.759,-1.798 -4.757,-2.363 -1.494,-0.418 -3.491,-0.628 -5.991,-0.628 l -12.737,0 0,29.619 z" />
          </g>
          <g
             transform="translate(191.6665,112.5098)"
             id="g3442">
            <path
               inkscape:connector-curvature="0"
               id="path3444"
               style="fill:#110f0d;fill-opacity:1;fill-rule:nonzero;stroke:none"
               d="m 0,0 6.769,0 0,-16.042 c 0,-2.544 0.084,-4.196 0.252,-4.95 0.289,-1.21 0.979,-2.186 2.068,-2.919 1.091,-0.735 2.581,-1.101 4.471,-1.101 1.921,0 3.369,0.347 4.344,1.04 0.977,0.694 1.564,1.547 1.762,2.557 0.198,1.01 0.297,2.686 0.297,5.03 l 0,16.385 6.769,0 0,-15.557 c 0,-3.555 -0.183,-6.067 -0.549,-7.535 -0.367,-1.469 -1.04,-2.707 -2.024,-3.717 -0.983,-1.009 -2.298,-1.815 -3.944,-2.415 -1.647,-0.599 -3.797,-0.899 -6.449,-0.899 -3.201,0 -5.629,0.327 -7.283,0.98 -1.655,0.653 -2.962,1.501 -3.922,2.546 -0.96,1.042 -1.593,2.138 -1.898,3.283 C 0.221,-21.617 0,-19.112 0,-15.8 L 0,0 Z" />
          </g>
          <g
             transform="translate(248.1528,93.7813)"
             id="g3446">
            <path
               inkscape:connector-curvature="0"
               id="path3448"
               style="fill:#110f0d;fill-opacity:1;fill-rule:nonzero;stroke:none"
               d="m 0,0 6.563,-1.84 c -1.006,-3.231 -2.68,-5.632 -5.02,-7.201 -2.34,-1.568 -5.309,-2.354 -8.906,-2.354 -4.452,0 -8.111,1.344 -10.976,4.031 -2.866,2.686 -4.299,6.36 -4.299,11.02 0,4.929 1.44,8.757 4.322,11.486 2.881,2.728 6.669,4.091 11.364,4.091 4.101,0 7.432,-1.07 9.993,-3.213 1.524,-1.264 2.668,-3.083 3.43,-5.453 l -6.7,-1.416 c -0.396,1.537 -1.224,2.747 -2.48,3.637 -1.259,0.89 -2.787,1.334 -4.585,1.334 -2.485,0 -4.501,-0.79 -6.048,-2.364 -1.548,-1.575 -2.323,-4.128 -2.323,-7.656 0,-3.746 0.764,-6.412 2.288,-8 1.524,-1.59 3.506,-2.385 5.945,-2.385 1.799,0 3.347,0.504 4.642,1.514 1.296,1.01 2.226,2.601 2.79,4.769" />
          </g>
          <g
             transform="translate(269.2407,82.8906)"
             id="g3450">
            <path
               inkscape:connector-curvature="0"
               id="path3452"
               style="fill:#110f0d;fill-opacity:1;fill-rule:nonzero;stroke:none"
               d="m 0,0 0,24.608 -9.948,0 0,5.011 26.641,0 0,-5.011 -9.924,0 L 6.769,0 0,0 Z" />
          </g>
          <path
             inkscape:connector-curvature="0"
             id="path3454"
             style="fill:#110f0d;fill-opacity:1;fill-rule:nonzero;stroke:none"
             d="m 291.267,112.51 6.769,0 0,-29.619 -6.769,0 0,29.619 z" />
          <g
             transform="translate(314.2065,82.8906)"
             id="g3456">
            <path
               inkscape:connector-curvature="0"
               id="path3458"
               style="fill:#110f0d;fill-opacity:1;fill-rule:nonzero;stroke:none"
               d="m 0,0 -11.982,29.619 7.34,0 8.484,-21.921 8.209,21.921 7.18,0 L 7.226,0 0,0 Z" />
          </g>
          <g
             transform="translate(338.0615,82.8906)"
             id="g3460">
            <path
               inkscape:connector-curvature="0"
               id="path3462"
               style="fill:#110f0d;fill-opacity:1;fill-rule:nonzero;stroke:none"
               d="m 0,0 0,29.619 24.856,0 0,-5.011 -18.087,0 0,-6.565 16.83,0 0,-4.99 -16.83,0 0,-8.062 18.728,0 L 25.497,0 0,0 Z" />
          </g>
          <g
             transform="translate(384.6748,82.8906)"
             id="g3464">
            <path
               inkscape:connector-curvature="0"
               id="path3466"
               style="fill:#110f0d;fill-opacity:1;fill-rule:nonzero;stroke:none"
               d="m 0,0 0,29.619 6.769,0 0,-11.657 13.263,0 0,11.657 6.768,0 0,-29.619 -6.768,0 0,12.951 -13.263,0 L 6.769,0 0,0 Z" />
          </g>
          <g
             transform="translate(437.4106,94.6094)"
             id="g3468">
            <path
               inkscape:connector-curvature="0"
               id="path3470"
               style="fill:#110f0d;fill-opacity:1;fill-rule:nonzero;stroke:none"
               d="M 0,0 -4.619,10.989 -9.146,0 0,0 Z m 12.462,-11.719 -7.363,0 -2.927,6.73 -13.399,0 -2.768,-6.73 -7.18,0 13.057,29.619 7.157,0 13.423,-29.619 z" />
          </g>
          <g
             transform="translate(454.7017,82.8906)"
             id="g3472">
            <path
               inkscape:connector-curvature="0"
               id="path3474"
               style="fill:#110f0d;fill-opacity:1;fill-rule:nonzero;stroke:none"
               d="m 0,0 0,29.619 6.586,0 13.721,-19.779 0,19.779 6.288,0 L 26.595,0 19.803,0 6.29,19.315 6.29,0 0,0 Z" />
          </g>
          <g
             transform="translate(496.3701,107.499)"
             id="g3476">
            <path
               inkscape:connector-curvature="0"
               id="path3478"
               style="fill:#110f0d;fill-opacity:1;fill-rule:nonzero;stroke:none"
               d="m 0,0 0,-19.617 5.054,0 c 1.89,0 3.256,0.094 4.092,0.283 1.098,0.243 2.01,0.653 2.734,1.232 0.724,0.581 1.314,1.532 1.773,2.86 0.455,1.325 0.684,3.133 0.684,5.424 0,2.289 -0.229,4.047 -0.684,5.272 -0.459,1.226 -1.098,2.182 -1.923,2.869 -0.822,0.688 -1.866,1.151 -3.132,1.393 C 7.653,-0.095 5.8,0 3.042,0 L 0,0 Z m -6.769,5.011 12.372,0 c 2.79,0 4.917,-0.191 6.379,-0.566 1.968,-0.512 3.651,-1.422 5.055,-2.728 1.401,-1.307 2.469,-2.906 3.201,-4.799 0.732,-1.892 1.097,-4.226 1.097,-6.999 0,-2.438 -0.342,-4.539 -1.029,-6.303 -0.839,-2.156 -2.035,-3.898 -3.59,-5.233 -1.174,-1.01 -2.759,-1.798 -4.756,-2.363 -1.494,-0.418 -3.491,-0.628 -5.991,-0.628 l -12.738,0 0,29.619 z" />
          </g>
          <g
             transform="translate(522.9014,92.5283)"
             id="g3480">
            <path
               inkscape:connector-curvature="0"
               id="path3482"
               style="fill:#110f0d;fill-opacity:1;fill-rule:nonzero;stroke:none"
               d="m 0,0 6.585,0.566 c 0.396,-1.955 1.201,-3.387 2.412,-4.303 1.211,-0.916 2.848,-1.374 4.906,-1.374 2.178,0 3.822,0.407 4.928,1.222 1.106,0.815 1.658,1.767 1.658,2.859 0,0.7 -0.233,1.298 -0.698,1.788 -0.466,0.491 -1.276,0.92 -2.436,1.283 -0.793,0.242 -2.599,0.672 -5.42,1.293 C 8.308,4.129 5.763,5.105 4.298,6.264 2.241,7.892 1.211,9.88 1.211,12.223 c 0,1.507 0.483,2.919 1.452,4.233 0.969,1.313 2.363,2.313 4.185,2.999 1.822,0.687 4.021,1.031 6.597,1.031 4.207,0 7.374,-0.815 9.501,-2.445 2.128,-1.63 3.243,-3.805 3.35,-6.525 l -6.769,-0.261 c -0.289,1.518 -0.91,2.615 -1.864,3.282 -0.953,0.666 -2.382,0.999 -4.287,0.999 -1.966,0 -3.506,-0.357 -4.619,-1.071 -0.717,-0.457 -1.074,-1.069 -1.074,-1.838 0,-0.7 0.336,-1.3 1.006,-1.799 0.854,-0.632 2.928,-1.292 6.22,-1.978 3.293,-0.688 5.728,-1.399 7.306,-2.133 1.578,-0.734 2.811,-1.736 3.704,-3.01 0.892,-1.271 1.339,-2.845 1.339,-4.718 0,-1.696 -0.535,-3.286 -1.603,-4.767 -1.066,-1.482 -2.575,-2.582 -4.526,-3.302 -1.952,-0.721 -4.384,-1.081 -7.296,-1.081 -4.237,0 -7.493,0.865 -9.763,2.596 C 1.799,-5.835 0.441,-3.313 0,0" />
          </g>
          <path
             inkscape:connector-curvature="0"
             id="path3484"
             style="fill:#110f0d;fill-opacity:1;fill-rule:nonzero;stroke:none"
             d="m 556.247,96.468 12.622,0 0,-5.677 -12.622,0 0,5.677 z" />
          <g
             transform="translate(573.834,82.8906)"
             id="g3486">
            <path
               inkscape:connector-curvature="0"
               id="path3488"
               style="fill:#110f0d;fill-opacity:1;fill-rule:nonzero;stroke:none"
               d="m 0,0 0,29.619 22.981,0 0,-5.011 -16.213,0 0,-7.009 13.997,0 0,-5.012 -13.997,0 L 6.768,0 0,0 Z" />
          </g>
          <g
             transform="translate(610.3574,99.9844)"
             id="g3490">
            <path
               inkscape:connector-curvature="0"
               id="path3492"
               style="fill:#110f0d;fill-opacity:1;fill-rule:nonzero;stroke:none"
               d="m 0,0 5.009,0 c 3.246,0 5.274,0.12 6.082,0.362 0.807,0.242 1.44,0.659 1.899,1.252 0.455,0.594 0.684,1.334 0.684,2.223 0,0.998 -0.3,1.802 -0.903,2.415 C 12.169,6.864 11.319,7.251 10.222,7.414 9.674,7.48 8.027,7.515 5.283,7.515 L 0,7.515 0,0 Z m -6.769,-17.094 0,29.619 14.248,0 c 3.583,0 6.184,-0.266 7.808,-0.797 1.625,-0.534 2.924,-1.48 3.9,-2.839 C 20.16,7.528 20.65,5.971 20.65,4.221 20.65,2 19.91,0.164 18.431,-1.283 c -1.478,-1.449 -3.688,-2.362 -6.63,-2.738 1.461,-0.754 2.671,-1.583 3.623,-2.486 0.954,-0.902 2.237,-2.505 3.854,-4.806 l 4.093,-5.781 -8.096,0 -4.892,6.446 c -1.738,2.304 -2.928,3.754 -3.569,4.355 -0.639,0.599 -1.319,1.01 -2.036,1.231 -0.715,0.222 -1.85,0.333 -3.406,0.333 l -1.372,0 0,-12.365 -6.769,0 z" />
          </g>
          <g
             transform="translate(638.5576,82.8906)"
             id="g3494">
            <path
               inkscape:connector-curvature="0"
               id="path3496"
               style="fill:#110f0d;fill-opacity:1;fill-rule:nonzero;stroke:none"
               d="m 0,0 0,29.619 24.856,0 0,-5.011 -18.087,0 0,-6.565 16.83,0 0,-4.99 -16.83,0 0,-8.062 18.728,0 L 25.497,0 0,0 Z" />
          </g>
          <g
             transform="translate(670.9658,82.8906)"
             id="g3498">
            <path
               inkscape:connector-curvature="0"
               id="path3500"
               style="fill:#110f0d;fill-opacity:1;fill-rule:nonzero;stroke:none"
               d="m 0,0 0,29.619 24.856,0 0,-5.011 -18.087,0 0,-6.565 16.829,0 0,-4.99 -16.829,0 0,-8.062 18.727,0 L 25.496,0 0,0 Z" />
          </g>
          <g
             transform="translate(739.0049,93.7813)"
             id="g3502">
            <path
               inkscape:connector-curvature="0"
               id="path3504"
               style="fill:#110f0d;fill-opacity:1;fill-rule:nonzero;stroke:none"
               d="m 0,0 6.563,-1.84 c -1.008,-3.231 -2.679,-5.632 -5.02,-7.201 -2.341,-1.568 -5.31,-2.354 -8.907,-2.354 -4.451,0 -8.11,1.344 -10.976,4.031 -2.867,2.686 -4.3,6.36 -4.3,11.02 0,4.929 1.442,8.757 4.323,11.486 2.881,2.728 6.669,4.091 11.365,4.091 4.1,0 7.432,-1.07 9.993,-3.213 1.523,-1.264 2.667,-3.083 3.431,-5.453 L -0.229,9.151 c -0.397,1.537 -1.224,2.747 -2.482,3.637 -1.257,0.89 -2.785,1.334 -4.584,1.334 -2.486,0 -4.502,-0.79 -6.049,-2.364 -1.547,-1.575 -2.32,-4.128 -2.32,-7.656 0,-3.746 0.763,-6.412 2.287,-8 1.523,-1.59 3.506,-2.385 5.945,-2.385 1.799,0 3.347,0.504 4.643,1.514 C -1.495,-3.759 -0.565,-2.168 0,0" />
          </g>
          <g
             transform="translate(752.5684,82.8906)"
             id="g3506">
            <path
               inkscape:connector-curvature="0"
               id="path3508"
               style="fill:#110f0d;fill-opacity:1;fill-rule:nonzero;stroke:none"
               d="m 0,0 0,29.619 6.77,0 0,-11.657 13.261,0 0,11.657 6.77,0 0,-29.619 -6.77,0 0,12.951 -13.261,0 L 6.77,0 0,0 Z" />
          </g>
          <g
             transform="translate(805.3057,94.6094)"
             id="g3510">
            <path
               inkscape:connector-curvature="0"
               id="path3512"
               style="fill:#110f0d;fill-opacity:1;fill-rule:nonzero;stroke:none"
               d="M 0,0 -4.621,10.989 -9.147,0 0,0 Z m 12.462,-11.719 -7.363,0 -2.927,6.73 -13.401,0 -2.768,-6.73 -7.179,0 13.058,29.619 7.155,0 13.425,-29.619 z" />
          </g>
          <g
             transform="translate(829.3193,99.9844)"
             id="g3514">
            <path
               inkscape:connector-curvature="0"
               id="path3516"
               style="fill:#110f0d;fill-opacity:1;fill-rule:nonzero;stroke:none"
               d="m 0,0 5.008,0 c 3.247,0 5.274,0.12 6.082,0.362 0.807,0.242 1.442,0.659 1.898,1.252 0.458,0.594 0.687,1.334 0.687,2.223 0,0.998 -0.301,1.802 -0.904,2.415 C 12.169,6.864 11.319,7.251 10.223,7.414 9.674,7.48 8.026,7.515 5.282,7.515 L 0,7.515 0,0 Z m -6.769,-17.094 0,29.619 14.247,0 c 3.583,0 6.186,-0.266 7.808,-0.797 1.624,-0.534 2.924,-1.48 3.901,-2.839 0.974,-1.361 1.462,-2.918 1.462,-4.668 0,-2.221 -0.741,-4.057 -2.219,-5.504 -1.478,-1.449 -3.688,-2.362 -6.63,-2.738 1.462,-0.754 2.671,-1.583 3.623,-2.486 0.954,-0.902 2.237,-2.505 3.854,-4.806 l 4.094,-5.781 -8.098,0 -4.89,6.446 c -1.738,2.304 -2.929,3.754 -3.57,4.355 -0.639,0.599 -1.318,1.01 -2.035,1.231 -0.715,0.222 -1.85,0.333 -3.406,0.333 l -1.372,0 0,-12.365 -6.769,0 z" />
          </g>
          <g
             transform="translate(873.1143,93.7813)"
             id="g3518">
            <path
               inkscape:connector-curvature="0"
               id="path3520"
               style="fill:#110f0d;fill-opacity:1;fill-rule:nonzero;stroke:none"
               d="m 0,0 0,4.989 14.59,0 0,-11.798 c -1.418,-1.211 -3.472,-2.279 -6.162,-3.2 -2.693,-0.924 -5.417,-1.386 -8.177,-1.386 -3.506,0 -6.563,0.649 -9.169,1.952 -2.606,1.297 -4.566,3.157 -5.877,5.575 -1.312,2.416 -1.966,5.048 -1.966,7.889 0,3.083 0.732,5.825 2.195,8.221 1.462,2.397 3.605,4.237 6.425,5.516 2.151,0.982 4.826,1.475 8.028,1.475 4.161,0 7.412,-0.771 9.752,-2.312 2.34,-1.543 3.845,-3.676 4.515,-6.396 L 7.431,9.413 c -0.472,1.455 -1.36,2.605 -2.663,3.445 -1.303,0.843 -2.929,1.264 -4.881,1.264 -2.959,0 -5.31,-0.828 -7.056,-2.485 -1.745,-1.657 -2.618,-4.115 -2.618,-7.374 0,-3.516 0.885,-6.152 2.652,-7.91 1.769,-1.756 4.085,-2.636 6.951,-2.636 1.418,0 2.84,0.247 4.266,0.737 1.425,0.492 2.648,1.089 3.672,1.787 L 7.754,0 0,0 Z" />
          </g>
          <path
             inkscape:connector-curvature="0"
             id="path3522"
             style="fill:#110f0d;fill-opacity:1;fill-rule:nonzero;stroke:none"
             d="m 894.912,112.51 6.77,0 0,-29.619 -6.77,0 0,29.619 z" />
          <g
             transform="translate(909.3691,82.8906)"
             id="g3524">
            <path
               inkscape:connector-curvature="0"
               id="path3526"
               style="fill:#110f0d;fill-opacity:1;fill-rule:nonzero;stroke:none"
               d="m 0,0 0,29.619 6.584,0 13.721,-19.779 0,19.779 6.289,0 L 26.594,0 19.802,0 6.287,19.315 6.287,0 0,0 Z" />
          </g>
          <g
             transform="translate(959.8857,93.7813)"
             id="g3528">
            <path
               inkscape:connector-curvature="0"
               id="path3530"
               style="fill:#110f0d;fill-opacity:1;fill-rule:nonzero;stroke:none"
               d="m 0,0 0,4.989 14.589,0 0,-11.798 c -1.417,-1.211 -3.472,-2.279 -6.162,-3.2 -2.691,-0.924 -5.417,-1.386 -8.175,-1.386 -3.507,0 -6.563,0.649 -9.169,1.952 -2.608,1.297 -4.567,3.157 -5.879,5.575 -1.31,2.416 -1.966,5.048 -1.966,7.889 0,3.083 0.733,5.825 2.197,8.221 1.462,2.397 3.604,4.237 6.424,5.516 2.151,0.982 4.827,1.475 8.027,1.475 4.162,0 7.412,-0.771 9.753,-2.312 2.339,-1.543 3.845,-3.676 4.516,-6.396 L 7.433,9.413 c -0.474,1.455 -1.362,2.605 -2.664,3.445 -1.305,0.843 -2.931,1.264 -4.883,1.264 -2.959,0 -5.309,-0.828 -7.056,-2.485 -1.744,-1.657 -2.618,-4.115 -2.618,-7.374 0,-3.516 0.885,-6.152 2.653,-7.91 1.769,-1.756 4.086,-2.636 6.952,-2.636 1.418,0 2.838,0.247 4.265,0.737 1.425,0.492 2.647,1.089 3.67,1.787 L 7.752,0 0,0 Z" />
          </g>
        </g>
      </g>
    </g>
  </g>
</svg>
